<?xml version="1.0" encoding="UTF-8" standalone="no"?>
<svg
   xmlns:dc="http://purl.org/dc/elements/1.1/"
   xmlns:cc="http://creativecommons.org/ns#"
   xmlns:rdf="http://www.w3.org/1999/02/22-rdf-syntax-ns#"
   xmlns:svg="http://www.w3.org/2000/svg"
   xmlns="http://www.w3.org/2000/svg"
   xmlns:sodipodi="http://sodipodi.sourceforge.net/DTD/sodipodi-0.dtd"
   xmlns:inkscape="http://www.inkscape.org/namespaces/inkscape"
   viewBox="0 0 1500 1000"
   width="1500"
   height="1000"
   version="1.1"
   id="svg78"
   sodipodi:docname="neo.svg"
   inkscape:version="1.0.2-2 (e86c870879, 2021-01-15)">
  <metadata
     id="metadata84">
    <rdf:RDF>
      <cc:Work
         rdf:about="">
        <dc:format>image/svg+xml</dc:format>
        <dc:type
           rdf:resource="http://purl.org/dc/dcmitype/StillImage" />
      </cc:Work>
    </rdf:RDF>
  </metadata>
  <defs
     id="defs82" />
  <sodipodi:namedview
     pagecolor="#ffffff"
     bordercolor="#666666"
     borderopacity="1"
     objecttolerance="10"
     gridtolerance="10"
     guidetolerance="10"
     inkscape:pageopacity="0"
     inkscape:pageshadow="2"
     inkscape:window-width="1920"
     inkscape:window-height="1057"
     id="namedview80"
     showgrid="false"
     inkscape:zoom="0.712"
     inkscape:cx="479.63483"
     inkscape:cy="500"
     inkscape:window-x="-8"
     inkscape:window-y="-8"
     inkscape:window-maximized="1"
     inkscape:current-layer="svg78" />
  <g
     transform="matrix(0.9921, 0, 0, 0.9921, 0, 0)"
     id="g76">
    <rect
       x="0"
       y="0"
       width="1512"
       height="1008"
       fill="rgb(12.156862745098%, 12.156862745098%, 12.156862745098%)"
       id="rect48" />
    <rect
       class="anchor"
       x="0"
       y="0"
       width="1"
       height="1"
       id="rect50" />
    <g
       transform="matrix(1, 0, 0, 1, 360, 0)"
       id="g54">
      <rect
         class="anchor"
         x="0"
         y="0"
         width="1"
         height="1"
         id="rect52" />
    </g>
    <g
       transform="matrix(1, 0, 0, 1, 723.1463, 104.5426)"
       id="g74">
      <path
         fill-mode="evenodd"
         fill="rgb(90.5882352941177%, 7.05882352941176%, 14.1176470588235%)"
         d="M -17.2 -8.895 L -16.003 -8.892 L -16.001 -8.891 L -15.67 -8.864 L -14.687 -8.703 L -14.67 -8.693 L -14.602 -8.686 L -14.05 -8.568 L -13.502 -8.559 L -13.497 -8.557 L -13.326 -8.548 L -12.422 -8.454 L -12.401 -8.443 L -12.271 -8.431 L -11.436 -8.277 L -11.432 -8.275 L -11.421 -8.274 L -10.847 -8.159 L -10.278 -8.147 L -10.273 -8.145 L -10.107 -8.136 L -9.351 -8.054 L -9.251 -8.003 L -8.816 -7.918 L -8.321 -7.716 L -7.911 -7.668 L -7.813 -7.617 L -7.412 -7.54 L -6.65 -7.236 L -6.597 -7.192 L -6.512 -7.172 L -6.003 -6.918 L -5.505 -6.819 L -5.263 -6.673 L -4.844 -6.552 L -4.254 -6.18 L -3.897 -5.965 L -3.669 -5.73 L -3.524 -5.669 L -3.253 -5.397 L -3.064 -5.255 L -3 -5.128 L -2.844 -5.062 L -2.473 -4.685 L -2.407 -4.523 L -2.165 -4.278 L -2.07 -4.112 L -1.874 -3.909 L -1.807 -3.744 L -1.685 -3.681 L -1.562 -3.506 L -1.421 -3.364 L -1.027 -3.083 L -0.956 -2.945 L -0.779 -2.871 L -0.631 -2.721 L -0.608 -2.707 L -0.502 -2.669 L -0.436 -2.666 L -0.428 -2.663 L -0.3 -2.655 L -0.217 -2.646 L -0.106 -2.588 L 0.634 -2.261 L 1.044 -2.091 L 1.05 -2.078 L 1.063 -2.072 L 1.601 -0.748 L 1.396 -0.243 L 1.38 -0.129 L 1.359 -0.048 L 1.303 0.259 L 1.018 0.746 L 0.916 0.991 L 0.861 1.014 L 0.826 1.074 L -0.075 1.402 L -0.682 1.181 L -0.734 1.183 L -0.734 1.183 L -0.942 1.194 L -1.047 1.197 L -2.239 0.789 L -2.403 0.662 L -2.826 0.406 L -3.168 0.266 L -3.433 0.004 L -3.835 -0.283 L -3.901 -0.411 L -4.068 -0.48 L -4.444 -0.852 L -4.496 -0.976 L -4.601 -1.027 L -4.751 -1.217 L -5.038 -1.492 L -5.098 -1.634 L -5.34 -1.864 L -5.449 -2.038 L -5.565 -2.152 L -5.763 -2.3 L -5.821 -2.417 L -5.967 -2.478 L -6.168 -2.677 L -6.34 -2.779 L -6.35 -2.789 L -6.361 -2.792 L -6.655 -2.974 L -7.062 -3.055 L -7.21 -3.145 L -7.551 -3.225 L -8.228 -3.563 L -8.638 -3.727 L -9.044 -3.77 L -9.135 -3.816 L -9.557 -3.896 L -10.043 -4.086 L -10.395 -4.118 L -11.025 -4.105 L -11.071 -4.104 L -11.469 -4.144 L -12.212 -4.292 L -12.886 -4.412 L -13.586 -4.455 L -14.249 -4.444 L -14.287 -4.444 L -14.665 -4.478 L -15.38 -4.611 L -16.155 -4.722 L -17.199 -4.72 L -17.205 -4.72 L -18.701 -4.72 L -18.706 -4.72 L -20.426 -4.724 L -22.443 -4.727 L -24.407 -4.728 L -26.556 -4.459 L -28.894 -3.892 L -28.897 -3.892 L -31.748 -3.154 L -34.515 -2.28 L -34.618 -2.264 L -34.653 -2.241 L -37.566 -1.514 L -40.757 -0.429 L -40.777 -0.425 L -40.784 -0.42 L -44.136 0.696 L -44.137 0.697 L -47.603 1.949 L -47.606 1.95 L -51.17 3.287 L -51.23 3.298 L -51.256 3.317 L -55.212 4.636 L -59.223 6.387 L -59.286 6.4 L -59.319 6.426 L -63.569 8.067 L -63.606 8.074 L -63.623 8.087 L -67.948 9.653 L -67.95 9.654 L -72.139 11.266 L -76.177 13.102 L -76.226 13.113 L -76.254 13.136 L -80.134 14.744 L -83.847 16.71 L -83.863 16.714 L -83.873 16.723 L -87.603 18.66 L -87.611 18.662 L -87.615 18.666 L -91.484 20.674 L -95.026 22.664 L -95.035 22.667 L -95.042 22.673 L -98.775 24.756 L -98.776 24.756 L -102.595 26.96 L -106.119 29.309 L -106.13 29.313 L -106.139 29.322 L -109.825 31.743 L -113.276 34.384 L -113.331 34.403 L -113.386 34.464 L -117.028 36.901 L -120.353 39.325 L -123.459 41.688 L -126.428 44.06 L -126.477 44.077 L -126.494 44.11 L -129.278 46.162 L -131.836 48.354 L -131.838 48.355 L -131.839 48.357 L -134.425 50.572 L -136.94 52.927 L -136.953 52.932 L -136.959 52.945 L -139.533 55.297 L -141.842 57.677 L -144.007 60.204 L -146.07 62.922 L -148.234 65.827 L -148.29 65.856 L -148.319 65.934 L -150.606 68.585 L -152.6 71.162 L -152.633 71.179 L -152.65 71.224 L -154.613 73.548 L -156.136 75.725 L -156.147 75.735 L -156.151 75.745 L -157.664 77.833 L -158.931 80.015 L -160.162 82.474 L -161.269 84.912 L -161.274 84.917 L -161.275 84.924 L -162.451 87.423 L -163.304 89.542 L -164.032 91.836 L -164.649 94.04 L -164.666 94.065 L -164.676 94.123 L -165.404 96.284 L -165.914 98.447 L -165.915 98.448 L -166.442 100.689 L -166.445 100.693 L -166.446 100.702 L -166.947 102.707 L -167.297 105.103 L -167.514 107.522 L -167.519 107.531 L -167.523 107.599 L -167.889 110.32 L -168.108 113.04 L -168.111 113.045 L -168.113 113.09 L -168.412 115.792 L -168.412 115.793 L -168.413 115.798 L -168.786 118.949 L -168.786 118.949 L -169.16 122.092 L -169.16 122.092 L -169.533 125.442 L -169.533 125.443 L -169.904 128.737 L -169.904 128.738 L -170.278 132.1 L -170.278 132.1 L -170.653 135.678 L -170.654 135.679 L -170.654 135.682 L -171.103 139.73 L -171.108 139.738 L -171.112 139.792 L -171.779 144.282 L -172.367 148.693 L -172.737 153.357 L -172.741 153.364 L -172.745 153.429 L -173.343 158.376 L -173.343 158.376 L -173.864 162.855 L -173.864 162.855 L -174.385 167.7 L -174.386 167.702 L -174.387 167.71 L -174.984 172.806 L -174.987 172.811 L -174.989 172.841 L -175.737 178.155 L -176.407 183.446 L -176.408 183.449 L -176.409 183.464 L -177.155 188.758 L -177.751 193.968 L -178.27 198.932 L -178.638 203.737 L -178.859 208.374 L -178.859 221.568 L -178.86 225.756 L -178.86 229.838 L -178.713 234.245 L -178.343 238.675 L -177.895 243.131 L -177.376 247.506 L -176.781 251.731 L -176.779 251.762 L -176.777 251.766 L -176.258 255.842 L -175.52 260.123 L -175.511 260.22 L -175.503 260.235 L -174.979 264.639 L -174.979 264.641 L -174.38 269.176 L -174.377 269.213 L -174.375 269.217 L -173.853 273.737 L -173.113 278.239 L -173.113 278.242 L -172.364 282.622 L -171.468 286.902 L -171.468 286.907 L -171.468 286.907 L -170.5 291.425 L -169.4 295.512 L -167.934 299.968 L -166.313 304.081 L -166.31 304.099 L -166.303 304.107 L -164.662 308.358 L -164.662 308.36 L -162.958 312.575 L -161.113 316.627 L -161.1 316.687 L -161.074 316.719 L -159.359 320.97 L -159.358 320.972 L -157.497 325.437 L -157.496 325.444 L -157.494 325.447 L -155.555 330.072 L -155.553 330.081 L -155.55 330.085 L -153.628 334.667 L -151.502 338.92 L -149.21 343.133 L -149.2 343.169 L -149.178 343.193 L -147.019 347.443 L -144.8 351.511 L -144.794 351.532 L -144.781 351.546 L -142.541 355.799 L -142.541 355.8 L -140.165 360.104 L -140.165 360.105 L -137.789 364.338 L -135.2 368.553 L -135.196 368.568 L -135.184 368.579 L -132.754 372.629 L -130.053 376.425 L -127.339 379.945 L -124.39 383.406 L -121.415 386.755 L -121.405 386.783 L -121.381 386.794 L -118.56 390.133 L -115.625 393.362 L -112.517 396.47 L -112.512 396.482 L -112.5 396.487 L -109.508 399.554 L -109.503 399.566 L -109.491 399.571 L -106.506 402.704 L -103.614 405.669 L -100.593 408.617 L -97.552 411.359 L -97.525 411.42 L -97.461 411.447 L -94.627 414.355 L -91.83 417.154 L -88.724 419.964 L -88.72 419.973 L -88.711 419.976 L -85.834 422.632 L -82.912 425.043 L -79.749 427.466 L -76.492 429.783 L -73.062 431.753 L -69.47 433.731 L -65.955 435.418 L -62.306 437.023 L -58.692 438.355 L -58.689 438.357 L -58.687 438.358 L -55 439.76 L -51.165 440.941 L -51.155 440.947 L -51.136 440.951 L -47.307 442.226 L -47.306 442.227 L -43.335 443.55 L -39.126 444.657 L -39.107 444.67 L -39.059 444.677 L -34.948 445.948 L -31.119 447.032 L -26.948 447.765 L -26.946 447.766 L -26.942 447.767 L -22.89 448.517 L -22.887 448.519 L -22.876 448.52 L -19.122 449.269 L -19.122 449.269 L -15.247 450.012 L -15.208 450.035 L -15.079 450.054 L -11.556 451.079 L -8.04 451.811 L -4.175 452.553 L -4.174 452.554 L -4.173 452.554 L -0.507 453.287 L 3.234 453.727 L 3.25 453.735 L 3.344 453.743 L 7.037 454.408 L 10.579 454.849 L 10.585 454.852 L 10.615 454.854 L 14.142 455.378 L 14.143 455.378 L 17.669 455.892 L 21.659 456.258 L 21.662 456.26 L 21.685 456.261 L 25.79 456.709 L 29.867 457.079 L 33.945 457.379 L 37.968 457.607 L 37.968 457.607 L 37.97 457.607 L 41.693 457.832 L 45.414 457.98 L 45.414 457.98 L 49.154 458.13 L 49.154 458.13 L 52.799 458.279 L 56.497 458.356 L 60.067 458.356 L 60.153 458.357 L 63.477 458.502 L 73.232 458.502 L 73.234 458.502 L 76.301 458.505 L 79.546 458.508 L 82.546 458.372 L 85.732 457.665 L 85.803 457.657 L 85.82 457.647 L 89.052 457.059 L 92.561 456.18 L 92.566 456.179 L 92.566 456.179 L 96.068 455.285 L 96.071 455.284 L 99.55 454.327 L 99.564 454.325 L 99.567 454.323 L 103.043 453.373 L 106.302 452.291 L 109.743 450.905 L 109.764 450.901 L 109.774 450.893 L 113.202 449.552 L 113.233 449.546 L 113.248 449.535 L 117.273 448.042 L 117.288 448.039 L 117.294 448.034 L 121.17 446.616 L 121.209 446.609 L 121.225 446.597 L 125.175 445.252 L 125.223 445.244 L 125.242 445.231 L 129.342 443.963 L 129.354 443.961 L 129.357 443.958 L 133.233 442.764 L 133.254 442.761 L 133.261 442.756 L 136.988 441.639 L 137.013 441.635 L 137.021 441.629 L 140.862 440.521 L 144.378 439.277 L 144.391 439.275 L 144.395 439.271 L 148.421 437.854 L 148.424 437.854 L 152.743 436.29 L 152.761 436.286 L 152.768 436.281 L 157.392 434.64 L 157.395 434.639 L 162.004 432.929 L 162.004 432.929 L 166.558 431.091 L 170.603 429.18 L 170.605 429.179 L 174.547 427.281 L 178.035 425.1 L 178.036 425.1 L 181.335 422.972 L 184.417 420.693 L 187.507 418.339 L 190.113 416.156 L 192.758 413.652 L 192.76 413.652 L 192.76 413.65 L 195.345 411.207 L 197.99 408.489 L 200.581 405.673 L 203.219 402.738 L 205.873 399.347 L 205.891 399.338 L 205.9 399.314 L 208.67 395.944 L 208.674 395.942 L 208.676 395.937 L 211.671 392.344 L 211.671 392.344 L 214.585 388.831 L 214.586 388.831 L 214.586 388.831 L 217.582 385.238 L 217.595 385.232 L 217.601 385.215 L 220.446 381.921 L 220.5 381.896 L 220.524 381.836 L 223.645 378.634 L 226.348 375.711 L 228.777 372.694 L 228.787 372.689 L 228.791 372.676 L 230.881 370.153 L 232.372 367.809 L 233.679 365.605 L 234.409 363.605 L 235.039 361.317 L 235.601 358.918 L 236.1 356.381 L 236.533 353.503 L 236.546 353.481 L 236.556 353.382 L 237.232 350.301 L 237.236 350.295 L 237.238 350.279 L 237.985 347.145 L 238.727 343.657 L 238.727 343.656 L 239.475 340.141 L 239.475 340.141 L 240.224 336.558 L 240.232 336.545 L 240.237 336.504 L 241.119 332.9 L 241.705 329.54 L 242.222 326.143 L 242.577 323.438 L 242.644 320.808 L 242.636 318.373 L 242.618 315.763 L 242.584 312.778 L 242.583 312.767 L 242.583 312.767 L 242.562 309.776 L 242.562 309.766 L 242.562 309.766 L 242.551 306.251 L 242.551 306.244 L 242.551 302.579 L 242.549 298.765 L 242.549 298.764 L 242.549 290.387 L 242.546 286.212 L 242.18 281.824 L 241.739 277.478 L 241.076 272.908 L 240.336 268.62 L 240.336 268.616 L 239.594 264.536 L 238.793 260.834 L 237.774 257.336 L 237.769 257.304 L 237.762 257.294 L 236.792 253.794 L 236.789 253.771 L 236.784 253.764 L 235.741 249.889 L 235.728 249.796 L 235.712 249.77 L 234.89 245.969 L 234.882 245.891 L 234.872 245.873 L 234.126 241.622 L 234.125 241.618 L 233.38 237.521 L 233.369 237.405 L 233.359 237.386 L 232.838 233.132 L 232.834 233.063 L 232.83 233.055 L 232.458 228.949 L 232.458 228.945 L 232.458 228.945 L 232.084 224.914 L 232.084 224.911 L 231.711 221.032 L 231.711 221.021 L 231.71 221.02 L 231.338 217.094 L 230.822 213.261 L 230.822 213.26 L 230.235 209.45 L 229.508 205.958 L 228.627 202.512 L 228.627 202.508 L 227.683 199.033 L 226.454 195.783 L 226.429 195.649 L 226.391 195.593 L 225.429 192.19 L 224.331 188.899 L 223.082 185.52 L 223.055 185.371 L 223.016 185.312 L 222.047 181.662 L 222.038 181.597 L 222.026 181.578 L 221.134 177.702 L 221.134 177.699 L 220.173 173.851 L 220.161 173.752 L 220.146 173.727 L 219.408 169.946 L 218.533 166.277 L 217.51 162.53 L 216.411 159.001 L 216.407 158.974 L 216.4 158.964 L 215.285 155.238 L 215.284 155.234 L 214.173 151.605 L 213.013 148.344 L 211.622 145.058 L 211.614 145.023 L 211.6 145.005 L 210.425 142.069 L 209.04 139.157 L 209.029 139.109 L 209.006 139.081 L 207.74 136.178 L 207.711 136.04 L 207.662 135.973 L 206.694 132.995 L 206.692 132.984 L 206.689 132.981 L 205.721 130.003 L 205.721 130.002 L 204.687 127.059 L 204.676 126.995 L 204.658 126.969 L 203.689 123.842 L 203.681 123.789 L 203.669 123.77 L 202.775 120.569 L 202.775 120.568 L 201.839 117.551 L 200.78 114.945 L 199.402 112.196 L 199.397 112.174 L 199.385 112.161 L 198.097 109.514 L 196.458 107.021 L 196.451 106.997 L 196.43 106.977 L 194.832 104.435 L 193.023 102.049 L 193.018 102.035 L 193.002 102.021 L 191.143 99.501 L 189.307 97.151 L 187.311 94.715 L 185.306 92.339 L 185.303 92.331 L 185.296 92.327 L 183.427 90.089 L 183.411 90.047 L 183.381 90.032 L 181.555 87.697 L 179.586 85.512 L 179.586 85.512 L 177.492 83.202 L 177.483 83.179 L 177.463 83.17 L 175.514 80.936 L 173.363 78.93 L 171.148 76.937 L 168.961 75.041 L 166.606 73.201 L 166.597 73.183 L 166.573 73.175 L 164.174 71.213 L 161.624 69.466 L 161.624 69.466 L 159.091 67.752 L 159.048 67.705 L 159.005 67.69 L 156.588 65.859 L 154.173 64.255 L 151.644 62.622 L 151.641 62.619 L 151.638 62.618 L 149.093 60.945 L 146.728 59.659 L 144.215 58.403 L 144.211 58.4 L 144.209 58.399 L 141.776 57.154 L 139.269 56.019 L 136.557 55.006 L 136.556 55.005 L 133.615 53.92 L 130.661 52.971 L 130.649 52.962 L 130.626 52.958 L 127.654 51.925 L 124.548 50.964 L 124.538 50.957 L 124.518 50.954 L 121.585 49.977 L 121.584 49.975 L 118.892 49.077 L 118.873 49.063 L 118.836 49.057 L 116.27 48.103 L 113.407 47.222 L 113.338 47.173 L 113.201 47.145 L 110.679 46.065 L 107.963 45.208 L 105.079 44.395 L 105.078 44.394 L 102.1 43.573 L 102.099 43.572 L 98.986 42.758 L 98.986 42.757 L 96.018 42.016 L 95.951 41.972 L 95.787 41.942 L 93.071 40.915 L 90.506 40.111 L 90.466 40.082 L 90.383 40.066 L 87.674 39.015 L 87.668 39.01 L 87.659 39.008 L 84.905 37.893 L 82.319 36.933 L 82.302 36.92 L 82.273 36.914 L 79.513 35.796 L 76.552 34.684 L 76.538 34.673 L 76.514 34.669 L 73.731 33.541 L 73.721 33.533 L 73.704 33.529 L 71.085 32.405 L 68.346 31.296 L 68.345 31.295 L 65.796 30.276 L 63 29.321 L 62.999 29.321 L 60.099 28.356 L 60.082 28.344 L 60.049 28.338 L 57.308 27.33 L 54.558 26.627 L 51.548 26.038 L 51.547 26.038 L 48.48 25.444 L 45.255 25.004 L 42.21 24.633 L 42.205 24.631 L 42.182 24.629 L 39.027 24.187 L 39.016 24.182 L 38.965 24.177 L 36.081 23.674 L 33.047 23.458 L 33.03 23.449 L 32.864 23.436 L 29.56 22.911 L 29.555 22.908 L 29.539 22.907 L 26.641 22.4 L 24.043 22.182 L 24.031 22.177 L 23.938 22.171 L 21.216 21.801 L 18.719 21.578 L 18.714 21.576 L 18.671 21.573 L 16.144 21.282 L 13.768 21.21 L 13.76 21.206 L 13.564 21.194 L 11.273 20.908 L 8.984 20.842 L 8.982 20.841 L 8.917 20.839 L 6.513 20.693 L 4.187 20.69 L 1.943 20.689 L 1.943 20.689 L 1.939 20.689 L -0.153 20.683 L -2.317 20.683 L -4.41 20.686 L -4.41 20.686 L -6.293 20.688 L -8.015 21.024 L -8.246 21.047 L -8.273 21.06 L -10.014 21.202 L -11.741 21.549 L -11.744 21.549 L -13.427 21.916 L -13.439 21.917 L -13.442 21.918 L -15.147 22.29 L -15.151 22.29 L -16.699 22.641 L -18.457 23.204 L -18.527 23.215 L -18.553 23.232 L -20.296 23.72 L -21.949 24.408 L -22.042 24.426 L -22.087 24.46 L -23.716 25.027 L -25.25 25.725 L -25.33 25.742 L -25.373 25.777 L -26.628 26.268 L -27.566 26.739 L -27.699 26.771 L -27.777 26.833 L -28.735 27.202 L -28.735 27.202 L -29.576 27.553 L -29.774 27.593 L -29.86 27.651 L -30.405 27.8 L -31.043 28.169 L -31.26 28.228 L -31.407 28.34 L -32.119 28.6 L -32.933 29.166 L -34.223 30.162 L -34.321 30.196 L -34.421 30.298 L -36.414 31.497 L -37.044 31.673 L -37.2 31.748 L -40.094 31.958 L -40.169 31.961 L -40.871 31.67 L -41.161 30.969 L -40.719 30.142 L -38.424 28.617 L -36.861 27.136 L -35.689 25.957 L -35.62 25.928 L -35.591 25.865 L -34.598 24.985 L -34.322 24.88 L -33.964 24.592 L -33.147 24.26 L -32.402 23.822 L -32.059 23.728 L -31.852 23.589 L -31.165 23.401 L -30.416 23.089 L -30.368 23.079 L -30.345 23.061 L -29.467 22.723 L -28.53 22.255 L -28.403 22.225 L -28.328 22.166 L -27.032 21.664 L -25.466 20.952 L -25.333 20.923 L -25.264 20.871 L -23.599 20.291 L -21.889 19.577 L -21.702 19.539 L -21.619 19.482 L -19.775 18.964 L -17.972 18.386 L -17.822 18.363 L -17.773 18.332 L -16.143 17.96 L -16.113 17.956 L -16.106 17.952 L -14.4 17.58 L -14.387 17.579 L -14.385 17.578 L -12.68 17.206 L -12.637 17.202 L -12.627 17.196 L -10.771 16.826 L -10.524 16.801 L -10.496 16.787 L -8.747 16.65 L -6.935 16.305 L -6.508 16.264 L -6.505 16.264 L -4.41 16.267 L -4.41 16.267 L -2.317 16.27 L -0.153 16.27 L 1.938 16.264 L 1.943 16.264 L 1.943 16.264 L 4.187 16.263 L 6.58 16.26 L 6.583 16.26 L 6.717 16.264 L 9.158 16.412 L 11.523 16.491 L 11.532 16.495 L 11.719 16.507 L 14.012 16.793 L 16.377 16.865 L 16.385 16.868 L 16.556 16.878 L 19.153 17.172 L 21.669 17.391 L 21.68 17.396 L 21.764 17.401 L 24.48 17.767 L 27.12 17.985 L 27.142 17.996 L 27.312 18.01 L 30.308 18.534 L 33.47 19.037 L 36.52 19.255 L 36.541 19.265 L 36.738 19.282 L 39.709 19.803 L 42.792 20.252 L 45.833 20.623 L 45.837 20.625 L 45.854 20.626 L 49.157 21.076 L 49.173 21.085 L 49.253 21.092 L 52.411 21.683 L 52.412 21.683 L 52.412 21.683 L 55.494 22.283 L 55.519 22.298 L 55.608 22.309 L 58.54 23.062 L 58.599 23.101 L 58.741 23.126 L 61.566 24.168 L 64.45 25.13 L 64.451 25.131 L 67.308 26.11 L 67.339 26.133 L 67.398 26.144 L 70.03 27.197 L 70.032 27.198 L 72.808 28.322 L 72.817 28.33 L 72.832 28.333 L 75.455 29.456 L 78.17 30.555 L 81.132 31.664 L 81.146 31.676 L 81.172 31.681 L 83.926 32.796 L 86.512 33.756 L 86.529 33.769 L 86.558 33.775 L 89.34 34.902 L 89.34 34.903 L 91.928 35.91 L 94.484 36.714 L 94.517 36.738 L 94.587 36.751 L 97.238 37.753 L 100.116 38.472 L 100.119 38.474 L 100.124 38.475 L 103.281 39.301 L 103.285 39.304 L 103.29 39.304 L 106.299 40.128 L 106.3 40.129 L 109.232 40.956 L 109.247 40.966 L 109.282 40.971 L 112.14 41.873 L 112.204 41.92 L 112.33 41.945 L 114.844 43.022 L 117.66 43.888 L 117.693 43.912 L 117.763 43.924 L 120.361 44.887 L 123.02 45.771 L 123.022 45.772 L 125.924 46.739 L 129.035 47.701 L 129.055 47.716 L 129.1 47.724 L 132.092 48.777 L 135.05 49.748 L 135.077 49.768 L 135.131 49.778 L 138.132 50.92 L 138.134 50.921 L 140.9 51.979 L 140.944 52.014 L 141.019 52.031 L 143.646 53.242 L 143.677 53.27 L 143.722 53.281 L 146.197 54.563 L 148.715 55.822 L 148.739 55.844 L 148.773 55.853 L 151.251 57.207 L 151.315 57.269 L 151.389 57.292 L 154.015 59.017 L 154.016 59.017 L 156.546 60.658 L 156.555 60.667 L 156.564 60.67 L 159.037 62.324 L 159.085 62.377 L 159.133 62.393 L 161.557 64.229 L 164.058 65.921 L 164.061 65.924 L 164.063 65.924 L 166.688 67.725 L 166.759 67.806 L 166.825 67.829 L 169.277 69.835 L 171.654 71.692 L 171.676 71.737 L 171.734 71.758 L 173.981 73.705 L 173.988 73.722 L 174.008 73.73 L 176.254 75.751 L 176.262 75.769 L 176.282 75.776 L 178.526 77.873 L 178.574 77.984 L 178.679 78.032 L 180.686 80.34 L 182.761 82.646 L 182.762 82.648 L 182.763 82.649 L 184.78 84.892 L 184.813 84.976 L 184.877 85.008 L 186.728 87.379 L 188.57 89.594 L 188.57 89.594 L 190.58 91.976 L 190.588 91.998 L 190.604 92.005 L 192.619 94.472 L 192.629 94.501 L 192.651 94.512 L 194.517 96.901 L 194.527 96.929 L 194.56 96.957 L 196.422 99.497 L 198.272 101.941 L 198.299 102.02 L 198.381 102.098 L 200.021 104.708 L 200.021 104.708 L 201.719 107.29 L 201.759 107.424 L 201.859 107.535 L 203.2 110.291 L 203.2 110.293 L 204.609 113.116 L 204.633 113.218 L 204.682 113.279 L 205.798 116.033 L 205.823 116.159 L 205.864 116.217 L 206.831 119.344 L 206.839 119.396 L 206.851 119.415 L 207.745 122.617 L 207.745 122.617 L 208.698 125.694 L 209.721 128.623 L 209.728 128.664 L 209.74 128.681 L 210.708 131.658 L 210.71 131.67 L 210.712 131.673 L 211.655 134.572 L 212.877 137.373 L 214.27 140.31 L 214.29 140.395 L 214.329 140.443 L 215.52 143.421 L 215.521 143.423 L 216.924 146.753 L 216.941 146.838 L 216.973 146.879 L 218.165 150.231 L 218.178 150.305 L 218.199 150.335 L 219.317 153.985 L 219.32 154.004 L 219.324 154.01 L 220.445 157.734 L 220.446 157.738 L 221.564 161.3 L 221.574 161.363 L 221.589 161.385 L 222.638 165.184 L 222.647 165.246 L 222.659 165.265 L 223.559 168.989 L 223.569 169.071 L 223.582 169.092 L 224.325 172.86 L 225.281 176.675 L 225.286 176.716 L 225.293 176.727 L 226.189 180.596 L 227.125 184.122 L 228.355 187.449 L 228.365 187.504 L 228.383 187.529 L 229.501 190.88 L 229.514 190.959 L 229.534 190.989 L 230.484 194.348 L 231.715 197.609 L 231.743 197.759 L 231.783 197.82 L 232.751 201.396 L 232.755 201.43 L 232.762 201.44 L 233.656 204.941 L 233.667 205.026 L 233.681 205.049 L 234.427 208.625 L 234.438 208.729 L 234.449 208.75 L 235.046 212.628 L 235.05 212.673 L 235.053 212.68 L 235.576 216.558 L 235.582 216.644 L 235.587 216.655 L 235.959 220.611 L 235.959 220.615 L 235.959 220.615 L 236.332 224.496 L 236.333 224.511 L 236.334 224.512 L 236.707 228.543 L 236.707 228.553 L 236.708 228.554 L 237.081 232.639 L 237.594 236.807 L 238.329 240.845 L 238.331 240.867 L 238.333 240.871 L 239.076 245.102 L 239.877 248.824 L 240.905 252.638 L 240.905 252.642 L 241.872 256.141 L 241.873 256.145 L 242.912 259.701 L 242.931 259.828 L 242.954 259.866 L 243.773 263.667 L 243.78 263.733 L 243.789 263.748 L 244.535 267.849 L 244.537 267.876 L 244.54 267.882 L 245.286 272.207 L 245.291 272.266 L 245.297 272.276 L 245.969 276.902 L 245.975 276.992 L 245.981 277.004 L 246.431 281.408 L 246.433 281.452 L 246.435 281.457 L 246.809 285.937 L 246.817 286.122 L 246.817 286.124 L 246.814 290.387 L 246.814 298.765 L 246.811 302.58 L 246.811 306.244 L 246.811 306.25 L 246.801 309.766 L 246.801 309.766 L 246.801 309.775 L 246.779 312.768 L 246.779 312.768 L 246.779 312.776 L 246.744 315.764 L 246.727 318.373 L 246.718 320.838 L 246.718 320.839 L 246.717 320.889 L 246.638 323.66 L 246.634 323.668 L 246.621 323.864 L 246.246 326.717 L 246.243 326.722 L 246.242 326.747 L 245.716 330.199 L 245.713 330.205 L 245.711 330.229 L 245.112 333.683 L 245.098 333.708 L 245.086 333.807 L 244.194 337.449 L 243.456 341.006 L 243.456 341.007 L 242.706 344.532 L 242.706 344.533 L 241.958 348.048 L 241.953 348.056 L 241.95 348.081 L 241.202 351.23 L 240.55 354.202 L 240.102 357.062 L 240.094 357.077 L 240.087 357.141 L 239.553 359.77 L 239.542 359.788 L 239.535 359.845 L 238.915 362.323 L 238.906 362.337 L 238.901 362.375 L 238.211 364.779 L 238.185 364.817 L 238.17 364.903 L 237.339 367.16 L 237.238 367.291 L 237.187 367.475 L 235.76 369.877 L 235.74 369.897 L 235.733 369.92 L 234.158 372.396 L 234.049 372.498 L 234.016 372.59 L 231.853 375.198 L 229.392 378.255 L 229.334 378.283 L 229.306 378.354 L 226.537 381.348 L 226.511 381.359 L 226.5 381.387 L 223.398 384.556 L 220.606 387.789 L 217.625 391.368 L 217.625 391.368 L 214.71 394.882 L 214.71 394.882 L 211.718 398.472 L 208.972 401.811 L 206.292 405.236 L 206.235 405.264 L 206.207 405.337 L 203.51 408.329 L 203.501 408.333 L 203.497 408.344 L 200.876 411.187 L 200.852 411.197 L 200.841 411.224 L 198.148 413.992 L 198.104 414.011 L 198.086 414.053 L 195.466 416.517 L 195.466 416.517 L 192.771 419.056 L 192.703 419.083 L 192.677 419.14 L 189.981 421.375 L 189.932 421.392 L 189.915 421.428 L 186.778 423.818 L 186.756 423.825 L 186.748 423.84 L 183.61 426.153 L 183.555 426.171 L 183.503 426.226 L 180.144 428.39 L 180.127 428.395 L 180.114 428.409 L 176.532 430.648 L 176.422 430.68 L 176.336 430.756 L 172.308 432.696 L 172.293 432.7 L 172.284 432.707 L 168.182 434.648 L 168.108 434.665 L 168.065 434.699 L 163.44 436.563 L 163.397 436.572 L 163.376 436.588 L 158.752 438.304 L 158.724 438.309 L 158.712 438.318 L 154.088 439.959 L 154.085 439.959 L 149.761 441.525 L 149.74 441.529 L 149.731 441.536 L 145.705 442.953 L 145.698 442.954 L 145.696 442.955 L 142.12 444.224 L 142.03 444.24 L 141.995 444.264 L 138.119 445.383 L 138.115 445.383 L 134.4 446.5 L 134.396 446.501 L 130.521 447.692 L 130.513 447.693 L 130.51 447.695 L 126.41 448.963 L 126.409 448.963 L 122.495 450.29 L 122.493 450.29 L 118.647 451.694 L 118.642 451.695 L 118.641 451.696 L 114.615 453.186 L 114.613 453.186 L 111.208 454.519 L 111.205 454.52 L 107.717 455.937 L 107.63 455.954 L 107.589 455.984 L 104.238 457.106 L 104.16 457.119 L 104.131 457.139 L 100.632 458.119 L 100.619 458.121 L 100.615 458.123 L 97.115 459.098 L 97.073 459.104 L 97.06 459.112 L 93.558 460.007 L 93.539 460.009 L 93.534 460.012 L 89.957 460.906 L 89.845 460.92 L 89.818 460.936 L 86.557 461.529 L 83.25 462.266 L 82.925 462.302 L 82.901 462.313 L 79.689 462.466 L 79.593 462.468 L 79.593 462.468 L 76.301 462.471 L 76.301 462.471 L 73.234 462.474 L 73.232 462.474 L 63.433 462.474 L 63.343 462.472 L 60.021 462.322 L 56.476 462.322 L 56.438 462.321 L 52.696 462.249 L 52.695 462.249 L 52.655 462.248 L 48.986 462.098 L 48.986 462.098 L 45.247 461.949 L 45.247 461.949 L 41.507 461.799 L 41.505 461.798 L 41.472 461.797 L 37.727 461.574 L 37.727 461.574 L 33.697 461.355 L 33.695 461.354 L 33.668 461.353 L 29.547 461.056 L 29.544 461.055 L 29.516 461.053 L 25.394 460.679 L 25.391 460.677 L 25.366 460.676 L 21.258 460.228 L 17.236 459.853 L 17.225 459.847 L 17.142 459.841 L 13.54 459.316 L 13.54 459.316 L 10.042 458.793 L 6.475 458.346 L 6.46 458.339 L 6.38 458.331 L 2.695 457.668 L -1.065 457.226 L -1.087 457.215 L -1.213 457.202 L -4.966 456.452 L -4.966 456.452 L -8.841 455.705 L -8.846 455.703 L -8.858 455.701 L -12.462 454.951 L -12.495 454.931 L -12.601 454.916 L -16.106 453.892 L -19.912 453.159 L -19.913 453.158 L -19.914 453.158 L -23.663 452.407 L -27.677 451.664 L -27.677 451.664 L -31.921 450.921 L -31.961 450.898 L -32.107 450.878 L -36.086 449.754 L -36.096 449.747 L -36.118 449.744 L -40.203 448.482 L -44.429 447.37 L -44.46 447.349 L -44.537 447.337 L -48.591 445.986 L -48.592 445.985 L -52.389 444.72 L -56.251 443.534 L -56.286 443.509 L -56.359 443.496 L -60.113 442.071 L -60.113 442.071 L -63.758 440.737 L -63.795 440.708 L -63.862 440.694 L -67.615 439.044 L -67.632 439.029 L -67.659 439.023 L -71.263 437.299 L -71.301 437.266 L -71.353 437.252 L -75.029 435.227 L -75.038 435.218 L -75.049 435.215 L -78.575 433.19 L -78.649 433.116 L -78.728 433.091 L -82.1 430.693 L -82.113 430.667 L -82.153 430.654 L -85.373 428.179 L -85.386 428.153 L -85.422 428.14 L -88.417 425.669 L -88.44 425.621 L -88.498 425.598 L -91.408 422.912 L -94.544 420.075 L -94.564 420.029 L -94.614 420.008 L -97.457 417.167 L -97.463 417.153 L -97.476 417.148 L -100.274 414.276 L -103.294 411.549 L -103.31 411.513 L -103.349 411.498 L -106.416 408.505 L -106.426 408.481 L -106.451 408.47 L -109.368 405.478 L -109.373 405.466 L -109.385 405.461 L -112.368 402.327 L -115.342 399.278 L -118.475 396.145 L -118.495 396.096 L -118.541 396.076 L -121.531 392.786 L -121.547 392.745 L -121.581 392.729 L -124.407 389.381 L -127.38 386.038 L -127.39 386.012 L -127.411 386.003 L -130.399 382.488 L -130.42 382.431 L -130.461 382.411 L -133.225 378.825 L -133.242 378.776 L -133.274 378.759 L -136.038 374.876 L -136.06 374.805 L -136.127 374.74 L -138.59 370.634 L -138.59 370.633 L -141.198 366.388 L -141.21 366.345 L -141.242 366.312 L -143.631 362.058 L -143.634 362.045 L -143.643 362.036 L -146.031 357.707 L -146.038 357.68 L -146.055 357.662 L -148.293 353.408 L -148.293 353.407 L -150.523 349.32 L -150.532 349.285 L -150.554 349.261 L -152.721 345.01 L -155.015 340.792 L -155.026 340.749 L -155.052 340.721 L -157.216 336.394 L -157.235 336.312 L -157.276 336.262 L -159.216 331.637 L -159.218 331.628 L -159.221 331.625 L -161.162 327 L -161.165 326.988 L -161.169 326.983 L -163.034 322.507 L -163.039 322.485 L -163.048 322.474 L -164.757 318.239 L -166.598 314.186 L -166.611 314.126 L -166.637 314.094 L -168.35 309.842 L -168.356 309.815 L -168.366 309.802 L -170.007 305.552 L -170.008 305.548 L -170.008 305.548 L -171.645 301.371 L -171.661 301.287 L -171.688 301.25 L -173.176 296.699 L -173.19 296.612 L -173.211 296.581 L -174.325 292.405 L -174.337 292.316 L -174.352 292.292 L -175.318 287.741 L -175.32 287.718 L -175.323 287.714 L -176.209 283.386 L -176.216 283.319 L -176.224 283.305 L -176.964 278.903 L -176.966 278.885 L -176.967 278.882 L -177.712 274.331 L -177.72 274.239 L -177.727 274.225 L -178.247 269.671 L -178.247 269.67 L -178.837 265.139 L -178.839 265.11 L -178.841 265.106 L -179.358 260.741 L -180.095 256.468 L -180.102 256.385 L -180.109 256.371 L -180.632 252.267 L -180.632 252.265 L -181.225 248.028 L -181.228 247.983 L -181.232 247.977 L -181.754 243.573 L -181.757 243.532 L -181.759 243.527 L -182.206 239.047 L -182.208 239.011 L -182.209 239.007 L -182.582 234.526 L -182.586 234.427 L -182.588 234.423 L -182.737 229.938 L -182.738 229.87 L -182.738 225.756 L -182.74 221.568 L -182.74 208.327 L -182.738 208.234 L -182.513 203.517 L -182.511 203.514 L -182.51 203.465 L -182.134 198.596 L -182.132 198.591 L -182.129 198.55 L -181.605 193.53 L -181.604 193.529 L -181.604 193.521 L -181.006 188.275 L -181.003 188.269 L -181 188.233 L -180.252 182.919 L -179.58 177.628 L -179.579 177.625 L -179.578 177.611 L -178.831 172.312 L -178.235 167.25 L -177.713 162.406 L -177.712 162.404 L -177.712 162.397 L -177.186 157.9 L -177.186 157.899 L -176.59 152.999 L -176.22 148.324 L -176.215 148.315 L -176.209 148.229 L -175.61 143.73 L -175.607 143.726 L -175.606 143.707 L -174.932 139.251 L -174.487 135.247 L -174.487 135.247 L -174.118 131.671 L -174.117 131.67 L -174.117 131.665 L -173.742 128.29 L -173.742 128.289 L -173.364 124.992 L -173.364 124.992 L -172.991 121.632 L -172.99 121.631 L -172.99 121.626 L -172.615 118.475 L -172.615 118.475 L -172.24 115.333 L -172.24 115.333 L -171.944 112.687 L -171.721 109.947 L -171.716 109.937 L -171.71 109.852 L -171.34 107.12 L -171.116 104.69 L -171.111 104.679 L -171.104 104.594 L -170.728 102.04 L -170.71 102.007 L -170.692 101.865 L -170.167 99.765 L -169.654 97.546 L -169.654 97.545 L -169.137 95.301 L -169.11 95.26 L -169.092 95.145 L -168.372 92.956 L -167.817 90.763 L -167.802 90.741 L -167.793 90.682 L -167.052 88.271 L -167.021 88.227 L -167.004 88.136 L -166.107 85.876 L -166.077 85.839 L -166.063 85.777 L -164.861 83.222 L -164.861 83.222 L -163.75 80.777 L -163.732 80.755 L -163.724 80.724 L -162.449 78.168 L -162.41 78.126 L -162.395 78.07 L -161.043 75.742 L -160.966 75.665 L -160.94 75.584 L -159.375 73.42 L -157.813 71.189 L -157.732 71.117 L -157.708 71.054 L -155.718 68.692 L -153.726 66.103 L -153.683 66.082 L -153.661 66.023 L -151.391 63.382 L -149.263 60.516 L -149.259 60.514 L -149.257 60.508 L -147.162 57.733 L -147.113 57.709 L -147.088 57.641 L -144.842 55.02 L -144.787 54.995 L -144.761 54.932 L -142.367 52.463 L -142.307 52.438 L -142.282 52.38 L -139.676 49.996 L -137.152 47.609 L -137.1 47.588 L -137.079 47.543 L -134.464 45.3 L -134.462 45.299 L -134.461 45.297 L -131.845 43.055 L -131.758 43.023 L -131.727 42.961 L -128.915 40.888 L -125.962 38.523 L -125.932 38.512 L -125.921 38.49 L -122.786 36.098 L -122.762 36.09 L -122.755 36.075 L -119.401 33.601 L -119.364 33.588 L -119.329 33.55 L -115.718 31.102 L -112.258 28.45 L -112.198 28.43 L -112.139 28.365 L -108.412 25.893 L -108.41 25.892 L -108.409 25.891 L -104.826 23.502 L -104.761 23.482 L -104.705 23.427 L -100.825 21.188 L -100.808 21.183 L -100.796 21.171 L -97.069 19.076 L -97.063 19.074 L -97.06 19.071 L -93.48 17.056 L -93.438 17.045 L -93.409 17.017 L -89.531 15.002 L -89.525 15 L -89.522 14.997 L -85.794 13.055 L -85.793 13.055 L -81.991 11.042 L -81.879 11.014 L -81.807 10.955 L -77.861 9.313 L -73.804 7.469 L -73.724 7.451 L -73.681 7.417 L -69.433 5.772 L -69.394 5.765 L -69.377 5.751 L -65.052 4.185 L -65.05 4.185 L -60.846 2.562 L -56.797 0.794 L -56.672 0.768 L -56.61 0.722 L -52.594 -0.617 L -49.066 -1.94 L -49.041 -1.945 L -49.03 -1.953 L -45.529 -3.222 L -45.484 -3.23 L -45.465 -3.244 L -42.114 -4.363 L -42.111 -4.363 L -38.838 -5.482 L -38.704 -5.505 L -38.656 -5.536 L -35.718 -6.273 L -32.957 -7.145 L -32.862 -7.16 L -32.829 -7.182 L -29.925 -7.921 L -29.895 -7.925 L -29.887 -7.93 L -27.433 -8.525 L -27.225 -8.551 L -27.187 -8.571 L -24.804 -8.869 L -24.537 -8.886 L -24.537 -8.886 L -22.443 -8.887 L -20.425 -8.89 L -18.706 -8.895 L -18.701 -8.895 L -17.205 -8.895 Z "
         id="path56" />
      <g
         transform="matrix(1, 0, 0, 1, -104.5, 142)"
         id="g60">
        <path
           fill-mode="evenodd"
           fill="rgb(90.5882352941177%, 7.05882352941176%, 14.1176470588235%)"
           d="M 0.914 -0.989 L 1.324 0 L 0.914 0.989 L 0.791 1.04 L 0.742 1.136 L -2.536 3.495 L -2.472 3.484 L -2.397 3.446 L 4.844 2.655 L 5.079 2.642 L 5.08 2.642 L 11.588 2.623 L 11.594 2.623 L 11.723 2.627 L 17.863 2.991 L 17.883 3 L 18.107 3.02 L 23.582 3.987 L 23.657 4.031 L 23.903 4.072 L 29.306 5.943 L 29.317 5.952 L 29.339 5.955 L 34.366 7.829 L 34.399 7.855 L 34.459 7.868 L 39.112 9.89 L 39.12 9.897 L 39.13 9.899 L 43.259 11.774 L 43.323 11.83 L 43.413 11.853 L 47.015 13.879 L 47.018 13.882 L 47.022 13.883 L 50.024 15.609 L 50.042 15.627 L 50.064 15.633 L 53.139 17.511 L 53.255 17.632 L 53.362 17.67 L 55.663 19.525 L 57.888 21.233 L 57.975 21.338 L 58.044 21.365 L 60.209 23.385 L 62.211 25.238 L 64.292 27.098 L 64.336 27.198 L 64.438 27.243 L 66.448 29.419 L 66.476 29.489 L 66.534 29.517 L 68.383 31.772 L 68.417 31.867 L 68.528 31.97 L 70.079 34.365 L 70.087 34.393 L 70.11 34.415 L 71.497 36.668 L 71.53 36.786 L 71.61 36.876 L 72.71 39.191 L 72.844 39.778 L 72.907 39.907 L 73.124 42.293 L 73.133 42.488 L 73.133 42.494 L 73.126 44.888 L 73.12 47.281 L 73.12 47.281 L 73.119 47.339 L 73.043 49.811 L 73.036 49.826 L 73.008 50.127 L 72.481 52.908 L 72.457 52.947 L 72.438 53.082 L 71.678 55.713 L 71.669 55.726 L 71.664 55.754 L 70.75 58.607 L 70.745 58.614 L 70.743 58.626 L 69.75 61.552 L 69.736 61.571 L 69.729 61.609 L 68.583 64.608 L 68.548 64.652 L 68.532 64.726 L 67.237 67.498 L 67.193 67.548 L 67.175 67.616 L 65.663 70.312 L 65.662 70.313 L 64.012 73.234 L 63.919 73.327 L 63.888 73.423 L 61.789 76.27 L 61.763 76.283 L 61.749 76.321 L 59.725 78.867 L 59.7 78.879 L 59.688 78.912 L 57.59 81.382 L 57.562 81.396 L 57.549 81.43 L 55.374 83.821 L 55.328 83.841 L 55.308 83.89 L 53.208 85.979 L 53.158 86 L 53.138 86.046 L 50.959 88.007 L 49.146 89.962 L 48.958 90.044 L 48.879 90.202 L 46.956 91.624 L 45.325 93.184 L 45.202 93.233 L 45.032 93.415 L 43.171 94.61 L 43.13 94.622 L 43.096 94.656 L 40.936 95.922 L 40.89 95.935 L 40.856 95.967 L 38.473 97.234 L 38.369 97.26 L 38.302 97.315 L 35.996 98.282 L 35.943 98.293 L 35.916 98.314 L 33.537 99.209 L 33.376 99.239 L 33.314 99.28 L 31.045 99.852 L 28.938 100.695 L 28.697 100.742 L 28.609 100.796 L 26.624 101.222 L 24.352 101.996 L 23.713 102.103 L 23.711 102.103 L 21.543 102.102 L 19.225 102.102 L 16.832 102.103 L 16.831 102.103 L 12.343 102.103 L 12.077 102.085 L 9.898 101.785 L 9.856 101.762 L 9.67 101.738 L 7.711 101.212 L 7.648 101.17 L 7.507 101.143 L 5.624 100.39 L 5.605 100.376 L 5.576 100.369 L 3.693 99.542 L 3.588 99.452 L 3.456 99.414 L 1.698 98.312 L -0.136 97.283 L -0.154 97.264 L -0.177 97.258 L -1.987 96.168 L -3.573 95.366 L -3.624 95.318 L -3.69 95.3 L -5.564 94.166 L -5.676 94.05 L -5.777 94.014 L -7.344 92.73 L -7.367 92.681 L -7.427 92.657 L -9.216 91.002 L -9.223 90.985 L -9.242 90.978 L -10.958 89.326 L -10.967 89.305 L -10.989 89.296 L -12.85 87.418 L -12.914 87.262 L -13.035 87.201 L -14.656 84.973 L -16.27 82.903 L -16.295 82.831 L -16.374 82.756 L -17.996 80.212 L -19.534 77.916 L -19.535 77.915 L -19.535 77.915 L -21.156 75.514 L -21.168 75.474 L -21.204 75.44 L -22.629 73.109 L -24.188 71.075 L -24.211 71.008 L -24.252 70.986 L -25.723 68.808 L -25.741 68.751 L -25.77 68.734 L -26.953 66.791 L -26.953 66.79 L -28.205 64.778 L -28.229 64.694 L -28.289 64.628 L -29.544 62.088 L -29.571 61.978 L -29.62 61.914 L -30.577 59.303 L -30.683 58.72 L -30.682 58.713 L -30.668 55.496 L -30.668 55.496 L -30.668 55.49 L -30.64 52.124 L -30.64 52.123 L -30.64 52.091 L -30.531 48.35 L -30.53 48.345 L -30.524 48.237 L -30.112 44.195 L -30.1 44.172 L -30.084 44.025 L -29.143 39.76 L -29.128 39.736 L -29.118 39.665 L -27.823 35.322 L -27.813 35.308 L -27.808 35.278 L -26.3 30.857 L -26.274 30.822 L -26.261 30.756 L -24.535 26.782 L -24.514 26.757 L -24.505 26.719 L -22.628 22.972 L -22.612 22.962 L -22.602 22.924 L -20.727 19.551 L -20.715 19.544 L -20.708 19.519 L -18.83 16.374 L -18.772 16.341 L -18.737 16.239 L -16.555 13.401 L -16.555 13.401 L -16.196 12.934 L -16.774 13.173 L -24.587 17.63 L -31.495 22.885 L -37.495 29.193 L -41.721 36.24 L -44.475 43.279 L -44.954 43.878 L -45.705 44.111 L -46.641 43.723 L -47.028 42.787 L -46.969 42.395 L -44.686 35.046 L -44.607 34.936 L -44.561 34.758 L -40.427 27.27 L -40.256 27.095 L -40.205 26.96 L -34.176 20.205 L -34.002 20.127 L -33.926 19.971 L -26.851 14.479 L -26.747 14.444 L -26.641 14.337 L -18.678 9.65 L -18.54 9.612 L -18.44 9.529 L -10.469 6.123 L -10.392 6.107 L -8.758 4.525 L -8.643 4.479 L -8.599 4.393 L -0.894 -1.134 L -0.075 -1.399 Z M -1.74 7.606 L -8.947 9.933 L -10.759 10.683 L -11.896 12.038 L -14.256 15.164 L -14.256 15.164 L -16.364 17.947 L -18.18 21.008 L -20.022 24.327 L -21.857 28.004 L -23.535 31.875 L -24.993 36.205 L -26.216 40.455 L -27.042 44.577 L -27.366 48.473 L -27.407 52.14 L -27.379 55.49 L -27.379 55.496 L -27.379 55.497 L -27.366 58.415 L -26.518 60.669 L -25.313 63.05 L -24.081 64.983 L -24.076 65 L -24.067 65.005 L -22.884 66.905 L -21.428 68.973 L -19.796 70.999 L -19.754 71.12 L -19.681 71.159 L -18.179 73.51 L -16.542 75.849 L -16.537 75.865 L -16.527 75.87 L -14.948 78.174 L -14.94 78.202 L -14.924 78.21 L -13.306 80.675 L -11.707 82.694 L -11.693 82.733 L -11.667 82.747 L -10.098 84.87 L -8.336 86.616 L -6.641 88.228 L -4.898 89.81 L -3.469 90.953 L -1.771 91.962 L -0.18 92.748 L -0.126 92.797 L -0.056 92.817 L 1.8 93.925 L 3.648 94.956 L 3.68 94.988 L 3.719 94.999 L 5.399 96.045 L 7.122 96.803 L 8.848 97.493 L 10.564 97.956 L 12.477 98.219 L 16.831 98.219 L 16.832 98.219 L 19.225 98.221 L 21.543 98.221 L 23.384 98.22 L 25.454 97.501 L 25.637 97.47 L 25.698 97.433 L 27.632 97.018 L 29.708 96.187 L 29.899 96.15 L 29.975 96.1 L 32.265 95.532 L 34.527 94.686 L 36.723 93.765 L 39.005 92.552 L 41.106 91.32 L 42.782 90.25 L 44.364 88.737 L 44.498 88.683 L 44.55 88.58 L 46.423 87.191 L 48.17 85.302 L 48.257 85.264 L 48.295 85.179 L 50.5 83.194 L 52.518 81.166 L 54.631 78.826 L 56.685 76.404 L 58.662 73.912 L 60.663 71.194 L 62.252 68.37 L 62.252 68.37 L 63.686 65.762 L 64.879 63.121 L 65.947 60.216 L 66.891 57.326 L 66.891 57.326 L 67.76 54.531 L 68.464 52.036 L 68.938 49.52 L 69.006 47.247 L 69 44.887 L 68.993 42.591 L 68.807 40.672 L 67.89 38.812 L 66.515 36.703 L 66.515 36.703 L 65.003 34.43 L 63.232 32.339 L 61.309 30.289 L 59.284 28.483 L 59.276 28.465 L 59.256 28.457 L 57.235 26.586 L 57.234 26.585 L 57.233 26.585 L 55.138 24.638 L 52.971 22.978 L 52.951 22.955 L 52.933 22.948 L 50.726 21.169 L 47.795 19.385 L 44.826 17.678 L 44.826 17.678 L 41.342 15.719 L 37.305 13.883 L 32.758 11.9 L 27.811 10.053 L 22.631 8.251 L 17.465 7.324 L 11.522 6.952 L 5.187 6.933 Z "
           id="path58" />
      </g>
      <g
         transform="matrix(1, 0, 0, 1, 92.25, 140.375)"
         id="g64">
        <path
           fill-mode="evenodd"
           fill="rgb(90.5882352941177%, 7.05882352941176%, 14.1176470588235%)"
           d="M -3.68 -8.045 L -2.481 -8.006 L -2.478 -8.004 L -2.392 -8.001 L -1.494 -7.925 L -1.46 -7.908 L -1.221 -7.878 L -0.718 -7.75 L -0.538 -7.632 L -0.266 -7.553 L -0.101 -7.448 L -0.062 -7.378 L 0.05 -7.337 L 0.552 -6.469 L 0.608 -6.162 L 0.614 -6.087 L 0.621 -6.075 L 1.315 -0.345 L 3.207 0.114 L 3.234 0.131 L 3.307 0.142 L 10.523 2.329 L 10.592 2.378 L 10.731 2.407 L 18.016 5.52 L 18.029 5.53 L 18.047 5.534 L 25.255 8.803 L 25.257 8.805 L 25.258 8.805 L 32.163 12.006 L 32.206 12.044 L 32.268 12.06 L 38.797 15.564 L 38.834 15.598 L 38.88 15.611 L 44.502 18.979 L 44.531 19.009 L 44.564 19.018 L 49.512 22.237 L 49.68 22.418 L 49.808 22.468 L 53.625 25.985 L 53.661 26.068 L 53.744 26.104 L 57.033 29.62 L 57.074 29.723 L 57.227 29.856 L 59.839 33.515 L 59.89 33.672 L 60.023 33.817 L 62.107 37.92 L 62.128 38.005 L 62.172 38.057 L 63.956 42.159 L 63.985 42.298 L 64.035 42.367 L 65.518 46.842 L 65.544 46.996 L 65.577 47.049 L 66.692 51.747 L 66.757 52.287 L 66.757 52.292 L 66.746 57.079 L 66.736 62.091 L 66.728 67.103 L 66.727 67.103 L 66.713 67.353 L 66.174 72.075 L 66.164 72.094 L 66.154 72.207 L 65.316 76.856 L 65.294 76.895 L 65.275 77.033 L 64.212 80.935 L 64.171 80.995 L 64.145 81.133 L 62.784 84.66 L 62.697 84.769 L 62.656 84.929 L 60.847 88.152 L 60.78 88.221 L 60.756 88.298 L 58.632 91.431 L 58.564 91.493 L 58.543 91.552 L 56.3 94.387 L 54.059 97.29 L 53.973 97.332 L 53.929 97.442 L 51.756 99.759 L 51.667 99.798 L 51.628 99.884 L 49.387 101.903 L 49.315 101.931 L 49.288 101.987 L 47.047 103.778 L 46.894 103.832 L 46.73 103.99 L 44.271 105.328 L 44.186 105.35 L 44.129 105.399 L 41.374 106.664 L 41.372 106.664 L 38.252 108.142 L 38.068 108.184 L 37.971 108.253 L 34.468 109.364 L 34.467 109.364 L 31.304 110.462 L 31.163 110.487 L 31.112 110.52 L 27.907 111.327 L 27.378 111.394 L 27.378 111.394 L 27.369 111.394 L 24.303 111.381 L 21.465 111.372 L 16.457 111.372 L 16.397 111.371 L 13.776 111.296 L 13.77 111.294 L 13.62 111.286 L 10.769 110.986 L 10.764 110.984 L 10.736 110.982 L 7.734 110.605 L 7.73 110.603 L 7.706 110.601 L 4.553 110.145 L 4.524 110.129 L 4.392 110.114 L 1.476 109.437 L -1.339 108.843 L -1.398 108.807 L -1.568 108.779 L -4.425 107.802 L -4.448 107.785 L -4.491 107.777 L -7.198 106.725 L -7.234 106.696 L -7.295 106.683 L -9.774 105.549 L -9.873 105.462 L -9.997 105.427 L -12.398 103.923 L -12.399 103.922 L -14.79 102.419 L -14.798 102.412 L -14.805 102.409 L -17.13 100.905 L -17.15 100.883 L -17.173 100.876 L -19.551 99.234 L -21.924 97.67 L -21.938 97.655 L -21.952 97.65 L -24.35 95.997 L -24.358 95.987 L -24.367 95.985 L -26.652 94.361 L -29.163 92.735 L -29.163 92.735 L -31.618 91.173 L -31.618 91.173 L -33.998 89.682 L -34.064 89.613 L -34.13 89.591 L -36.529 87.792 L -36.543 87.764 L -36.582 87.75 L -38.902 85.874 L -38.909 85.86 L -38.927 85.853 L -41.167 83.973 L -41.225 83.85 L -41.356 83.792 L -43.212 81.762 L -43.23 81.715 L -43.269 81.697 L -44.905 79.748 L -44.932 79.673 L -45.026 79.589 L -46.508 77.419 L -46.544 77.301 L -46.639 77.199 L -47.899 74.738 L -48.015 74.263 L -48.101 74.103 L -48.467 71.495 L -48.487 71.213 L -48.487 71.211 L -48.484 68.069 L -48.484 68.069 L -48.481 64.927 L -48.481 64.927 L -48.469 64.711 L -48.09 61.336 L -48.072 61.301 L -48.048 61.105 L -47.142 57.353 L -47.099 57.287 L -47.069 57.122 L -45.561 53.222 L -45.525 53.176 L -45.508 53.1 L -43.474 48.83 L -43.419 48.768 L -43.397 48.688 L -40.692 44.12 L -40.67 44.099 L -40.663 44.074 L -37.362 38.908 L -37.362 38.908 L -34.002 33.539 L -33.995 33.533 L -33.993 33.527 L -30.473 28.059 L -30.464 28.05 L -30.461 28.04 L -26.865 22.648 L -26.859 22.644 L -26.858 22.639 L -23.374 17.529 L -20.183 12.117 L -20.18 12.114 L -20.179 12.112 L -17.028 6.87 L -17.001 6.844 L -16.992 6.814 L -13.974 2.22 L -16.188 2.199 L -21.399 5.69 L -27.074 12.116 L -33.077 20.855 L -33.811 21.24 L -34.443 20.978 L -34.704 20.346 L -34.586 19.903 L -29.279 10.627 L -29.225 10.596 L -29.191 10.495 L -23.857 3.399 L -23.641 3.291 L -23.534 3.074 L -17.907 -1.205 L -17.015 -1.507 L -16.82 -1.594 L -11.179 -1.785 L -11.039 -1.984 L -10.977 -2.016 L -10.944 -2.107 L -8.691 -4.797 L -8.594 -4.843 L -8.548 -4.949 L -6.594 -6.808 L -6.391 -6.889 L -6.088 -7.151 L -4.519 -7.873 L -3.74 -8.046 Z M -10.703 4.13 L -13.807 8.864 L -16.926 14.075 L -16.926 14.075 L -20.133 19.525 L -20.179 19.571 L -20.195 19.622 L -23.712 24.791 L -27.285 30.153 L -30.786 35.592 L -34.139 40.965 L -34.142 40.968 L -34.143 40.971 L -37.415 46.112 L -40.036 50.572 L -41.979 54.698 L -43.396 58.401 L -44.23 61.9 L -44.574 65.037 L -44.571 68.069 L -44.571 68.069 L -44.568 71.07 L -44.255 73.22 L -43.187 75.279 L -41.811 77.255 L -40.252 79.083 L -38.488 80.963 L -36.344 82.737 L -34.062 84.572 L -31.765 86.294 L -29.437 87.746 L -29.433 87.75 L -29.429 87.751 L -26.953 89.327 L -26.951 89.329 L -26.949 89.33 L -24.397 90.979 L -24.366 91.012 L -24.332 91.023 L -22.019 92.663 L -19.655 94.283 L -17.276 95.837 L -17.262 95.852 L -17.247 95.857 L -14.87 97.484 L -12.579 98.956 L -10.199 100.435 L -10.198 100.436 L -7.925 101.853 L -5.623 102.891 L -3.018 103.904 L -0.344 104.818 L 2.385 105.391 L 2.391 105.395 L 2.408 105.397 L 5.245 106.047 L 8.293 106.476 L 11.244 106.843 L 13.98 107.131 L 16.487 107.203 L 21.465 107.203 L 24.304 107.194 L 27.104 107.182 L 29.981 106.434 L 33.093 105.342 L 33.141 105.333 L 33.161 105.319 L 36.54 104.233 L 39.532 102.8 L 39.559 102.794 L 39.574 102.78 L 42.28 101.535 L 44.513 100.314 L 46.561 98.674 L 48.689 96.76 L 50.72 94.583 L 52.9 91.739 L 52.909 91.735 L 52.914 91.722 L 55.097 88.95 L 57.072 85.936 L 58.744 82.925 L 59.985 79.657 L 60.965 75.967 L 61.745 71.494 L 62.233 66.978 L 62.224 62.091 L 62.224 62.091 L 62.214 57.08 L 62.214 57.08 L 62.205 52.558 L 61.162 48.199 L 59.722 43.906 L 57.988 39.948 L 56 36.054 L 53.57 32.654 L 50.44 29.313 L 46.829 25.985 L 42.086 22.89 L 36.556 19.567 L 30.159 16.089 L 23.339 12.876 L 23.338 12.875 L 16.196 9.569 L 9.095 6.455 L 2.102 4.205 L -4.571 2.525 L -9.434 2.306 Z M -2.385 -4.417 L -2.48 -4.413 L -2.484 -4.411 L -3.284 -4.385 L -4.226 -3.921 L -5.877 -2.316 L -6.392 -1.694 L -4.207 -1.638 L -4.189 -1.63 L -3.771 -1.58 L -1.478 -1.023 L -1.943 -4.455 Z "
           id="path62" />
      </g>
      <g
         transform="matrix(1, 0, 0, 1, -0.375, 179)"
         id="g68">
        <path
           fill-mode="evenodd"
           fill="rgb(90.5882352941177%, 7.05882352941176%, 14.1176470588235%)"
           d="M 0.641 -0.916 L 0.685 -0.847 L 0.747 -0.822 L 0.824 -0.634 L 1.051 -0.287 L 3.046 7.525 L 3.051 7.563 L 3.057 7.573 L 4.251 12.933 L 4.252 12.936 L 5.877 19.782 L 5.877 19.784 L 8.024 28.118 L 8.024 28.121 L 10.898 38.789 L 10.899 38.791 L 14.44 51.406 L 14.441 51.414 L 14.443 51.415 L 18.527 65.902 L 18.527 65.905 L 23.123 81.506 L 23.126 81.526 L 23.13 81.532 L 27.541 97.005 L 27.546 97.038 L 27.553 97.049 L 31.426 111.777 L 31.429 111.804 L 31.434 111.812 L 34.712 125.063 L 34.721 125.13 L 34.731 125.148 L 36.962 136.54 L 36.974 136.657 L 36.982 136.673 L 37.962 146.207 L 37.968 146.315 L 37.671 147.033 L 36.953 147.33 L 36.3 147.093 L 35.954 146.496 L 34.25 137.085 L 31.707 125.802 L 28.266 112.629 L 28.266 112.624 L 28.265 112.624 L 24.364 97.903 L 24.364 97.901 L 19.959 82.448 L 19.959 82.443 L 19.958 82.443 L 15.437 66.809 L 15.434 66.785 L 15.428 66.777 L 11.439 52.263 L 11.438 52.255 L 11.437 52.253 L 7.954 39.613 L 7.951 39.591 L 7.947 39.584 L 5.143 28.888 L 5.14 28.86 L 5.134 28.851 L 3.101 20.469 L 3.097 20.437 L 3.092 20.428 L 1.582 13.542 L 1.579 13.509 L 1.574 13.501 L 0.527 8.109 L 0.527 8.109 L -1.208 0.259 L -1.237 0 L -0.896 -0.822 L -0.075 -1.162 Z "
           id="path66" />
      </g>
      <g
         transform="matrix(1, 0, 0, 1, -31.5, 342.375)"
         id="g72">
        <path
           fill-mode="evenodd"
           fill="rgb(90.5882352941177%, 7.05882352941176%, 14.1176470588235%)"
           d="M 153.381 -49.338 L 153.8 -48.625 L 154.482 -45.027 L 154.503 -44.806 L 154.513 -44.784 L 154.769 -40.918 L 154.773 -40.824 L 154.774 -40.821 L 154.865 -37.086 L 154.866 -37.064 L 154.866 -37.064 L 154.918 -33.775 L 154.918 -33.754 L 154.918 -33.754 L 154.939 -31.062 L 154.939 -31.043 L 154.935 -30.91 L 154.789 -28.36 L 154.786 -28.354 L 154.782 -28.274 L 154.557 -25.945 L 154.529 -25.89 L 154.483 -25.553 L 153.813 -23.141 L 153.789 -23.106 L 153.775 -23.023 L 152.947 -20.613 L 152.923 -20.581 L 152.911 -20.519 L 152.007 -18.26 L 152.005 -18.258 L 151.03 -15.856 L 151.023 -15.848 L 151.021 -15.836 L 149.965 -13.353 L 149.927 -13.307 L 149.91 -13.237 L 148.631 -10.681 L 148.626 -10.676 L 148.625 -10.67 L 147.271 -8.04 L 147.271 -8.04 L 145.937 -5.371 L 145.882 -5.311 L 145.861 -5.234 L 144.222 -2.479 L 142.607 0.383 L 141.051 3.346 L 140.987 3.414 L 140.964 3.495 L 139.161 6.346 L 139.161 6.347 L 137.519 8.96 L 137.504 8.974 L 137.499 8.99 L 135.788 11.594 L 134.353 13.891 L 133.035 16.369 L 133.008 16.397 L 132.998 16.434 L 131.867 18.378 L 130.83 20.224 L 130.793 20.262 L 130.78 20.307 L 129.651 22.111 L 129.638 22.123 L 129.634 22.137 L 128.655 23.641 L 128.574 23.716 L 128.549 23.788 L 127.27 25.437 L 127.186 25.505 L 127.164 25.563 L 125.813 27.059 L 125.78 27.074 L 125.765 27.111 L 124.113 28.828 L 124.091 28.837 L 124.081 28.86 L 122.358 30.579 L 122.249 30.624 L 122.204 30.719 L 120.487 32.147 L 118.913 33.716 L 118.798 33.764 L 118.752 33.863 L 117.066 35.252 L 115.451 36.703 L 115.392 36.725 L 115.322 36.81 L 113.601 38.145 L 113.577 38.153 L 113.554 38.18 L 111.539 39.67 L 111.463 39.695 L 111.39 39.771 L 109.377 41.034 L 109.295 41.058 L 109.229 41.12 L 107.144 42.231 L 107.083 42.246 L 107.044 42.281 L 105.034 43.241 L 105.032 43.242 L 102.964 44.266 L 102.827 44.299 L 102.746 44.362 L 100.648 45.152 L 98.499 46.152 L 98.408 46.173 L 98.357 46.213 L 96.279 47.027 L 94.247 47.898 L 94.173 47.914 L 94.135 47.943 L 91.755 48.833 L 91.755 48.833 L 89.416 49.78 L 89.369 49.79 L 89.347 49.807 L 86.968 50.698 L 86.796 50.73 L 86.729 50.774 L 84.425 51.369 L 84.271 51.389 L 84.233 51.41 L 82.078 51.784 L 81.689 51.818 L 81.688 51.819 L 79.819 51.821 L 79.815 51.821 L 78.169 51.821 L 78.167 51.821 L 76.448 51.82 L 74.803 51.82 L 74.801 51.82 L 72.857 51.819 L 72.856 51.818 L 72.691 51.812 L 70.752 51.666 L 68.666 51.663 L 68.666 51.663 L 68.581 51.661 L 66.482 51.578 L 66.466 51.571 L 66.207 51.549 L 64.467 51.256 L 62.578 51.167 L 62.557 51.157 L 62.277 51.131 L 60.246 50.743 L 60.211 50.722 L 60.09 50.706 L 58.174 50.177 L 55.968 49.654 L 55.915 49.62 L 55.776 49.597 L 53.698 48.878 L 51.318 48.297 L 51.238 48.245 L 51.047 48.208 L 48.839 47.326 L 46.49 46.513 L 46.422 46.462 L 46.301 46.435 L 44.044 45.382 L 43.968 45.315 L 43.868 45.288 L 41.842 44.08 L 41.781 44.018 L 41.715 43.998 L 39.69 42.571 L 39.69 42.571 L 37.759 41.228 L 37.739 41.207 L 37.72 41.2 L 35.472 39.548 L 35.364 39.422 L 35.281 39.389 L 33.121 37.358 L 33.106 37.322 L 33.068 37.307 L 30.984 35.202 L 30.962 35.147 L 30.911 35.125 L 28.901 32.876 L 28.873 32.801 L 28.769 32.712 L 26.936 30.196 L 25.123 27.927 L 22.987 25.399 L 22.975 25.364 L 22.948 25.352 L 20.862 22.734 L 20.843 22.682 L 20.782 22.628 L 18.702 19.651 L 16.35 16.467 L 14.027 13.47 L 11.324 10.455 L 8.711 7.607 L 5.909 5.078 L 3.186 2.871 L 0.8 1.192 L -0.075 1.554 L -1.174 1.099 L -1.192 1.056 L -1.232 1.038 L -2.838 -0.753 L -3.208 -0.906 L -3.21 -0.91 L -3.214 -0.912 L -3.732 -2.169 L -3.214 -3.427 L -3.21 -3.428 L -3.208 -3.433 L -2.798 -3.602 L -1.962 -3.956 L -1.664 -3.959 L -1.646 -3.959 L -1.195 -3.901 L 0.17 -3.547 L 0.385 -3.404 L 0.694 -3.311 L 2.818 -1.92 L 2.818 -1.92 L 5.387 -0.251 L 5.445 -0.187 L 5.503 -0.168 L 8.378 2.043 L 8.407 2.101 L 8.484 2.131 L 11.41 4.742 L 11.45 4.83 L 11.541 4.869 L 14.241 7.778 L 14.246 7.79 L 14.257 7.795 L 17.033 10.851 L 17.064 10.931 L 17.126 10.961 L 19.527 14.016 L 19.537 14.046 L 19.558 14.056 L 21.96 17.259 L 21.969 17.288 L 22.001 17.316 L 24.062 20.255 L 26.097 22.79 L 28.252 25.293 L 28.265 25.326 L 28.291 25.339 L 30.169 27.646 L 30.189 27.702 L 30.228 27.722 L 32.05 30.176 L 33.971 32.296 L 36.008 34.314 L 38.072 36.216 L 40.201 37.774 L 42.127 39.102 L 42.132 39.107 L 42.136 39.108 L 44.089 40.481 L 45.951 41.578 L 48 42.533 L 50.298 43.317 L 50.328 43.339 L 50.386 43.351 L 52.49 44.192 L 54.822 44.752 L 54.871 44.784 L 55.001 44.806 L 57.069 45.515 L 59.215 46.007 L 59.228 46.015 L 59.266 46.02 L 61.137 46.51 L 62.909 46.828 L 64.767 46.878 L 64.777 46.883 L 65.033 46.902 L 66.778 47.166 L 68.703 47.227 L 70.835 47.224 L 70.839 47.224 L 70.999 47.23 L 72.939 47.37 L 74.801 47.369 L 74.803 47.369 L 76.448 47.369 L 78.167 47.368 L 78.169 47.368 L 79.815 47.368 L 79.818 47.368 L 81.497 47.37 L 83.391 47.045 L 85.507 46.498 L 87.77 45.648 L 87.77 45.647 L 90.105 44.695 L 90.153 44.686 L 90.176 44.668 L 92.533 43.78 L 94.556 42.913 L 94.606 42.902 L 94.631 42.882 L 96.667 42.079 L 98.826 41.068 L 98.931 41.044 L 98.989 40.998 L 101.054 40.209 L 103.025 39.214 L 103.052 39.207 L 103.068 39.192 L 105.051 38.229 L 107.027 37.164 L 108.904 35.977 L 110.827 34.549 L 112.445 33.271 L 114.016 31.825 L 114.082 31.799 L 114.108 31.745 L 115.743 30.391 L 117.309 28.821 L 117.418 28.776 L 117.463 28.68 L 119.176 27.248 L 120.801 25.62 L 122.4 23.938 L 123.663 22.53 L 124.822 21.024 L 125.738 19.613 L 126.813 17.889 L 127.834 16.06 L 127.838 16.055 L 127.839 16.05 L 128.938 14.127 L 130.262 11.613 L 130.321 11.552 L 130.342 11.476 L 131.844 9.073 L 131.862 9.056 L 131.867 9.038 L 133.581 6.43 L 135.213 3.832 L 135.214 3.831 L 136.955 1.071 L 138.486 -1.849 L 138.507 -1.871 L 138.514 -1.899 L 140.166 -4.828 L 140.181 -4.843 L 140.186 -4.862 L 141.789 -7.561 L 143.102 -10.188 L 143.106 -10.192 L 143.107 -10.197 L 144.459 -12.829 L 144.459 -12.829 L 145.68 -15.276 L 146.699 -17.687 L 146.7 -17.687 L 147.659 -20.05 L 147.66 -20.051 L 148.526 -22.223 L 149.309 -24.502 L 149.911 -26.621 L 150.111 -28.688 L 150.259 -31.124 L 150.279 -33.755 L 150.279 -33.755 L 150.279 -33.773 L 150.331 -37.065 L 150.331 -37.066 L 150.332 -37.083 L 150.423 -40.824 L 150.424 -40.827 L 150.427 -40.912 L 150.684 -44.79 L 150.694 -44.811 L 150.713 -45.014 L 151.398 -48.633 L 151.816 -49.338 L 152.598 -49.621 Z "
           id="path70" />
      </g>
    </g>
  </g>
  <path
     style="fill:none;stroke:#000000"
     id="path120"
     d="m 524.60046,107.75275 c -14.01415,1.36648 -27.69441,4.4966 -41.24222,8.22393 -3.50743,1.07204 -7.02592,2.10856 -10.5223,3.21613 -8.29671,2.62821 -14.40411,4.62068 -22.49501,7.96673 -12.13527,5.01865 -23.81923,11.06919 -35.49197,17.05587 -19.4161,10.82 -39.30132,21.00312 -57.86636,33.26548 -6.5758,4.34336 -9.31857,6.62448 -15.46204,11.35532 -8.52039,7.44234 -16.39959,15.98647 -21.66343,26.09776 -0.77801,1.49448 -1.39925,3.06548 -2.09887,4.59822 -3.76817,10.17307 -4.54775,21.07712 -5.07438,31.81842 -0.457,9.11388 -0.35551,18.31053 1.93327,27.21123 0.64601,2.51223 1.54671,4.952 2.32007,7.428 7.46063,19.30085 17.45301,37.50619 27.81033,55.37694 8.12964,13.83819 17.94741,26.5598 27.32361,39.5537 6.65169,8.98167 13.53856,17.80933 20.66254,26.4208 22.85666,26.87788 49.75856,49.99735 76.50978,72.8731 26.25391,22.38982 53.00026,44.19612 79.81149,65.91301 21.36735,17.62196 43.51435,34.25513 66.60348,49.54961 14.74456,9.02636 30.12505,16.9427 45.22672,25.34525 9.50307,5.26416 18.85406,10.79073 28.0943,16.50168 0,0 17.1562,-11.09793 17.1562,-11.09793 v 0 c -9.46721,-5.54033 -19.01372,-10.94048 -28.61585,-16.24361 -15.10327,-8.40924 -30.34293,-16.5642 -45.38049,-25.09005 -23.45223,-14.81372 -45.70519,-31.36814 -67.1457,-48.96495 -26.88009,-21.69322 -53.70192,-43.46396 -80.21102,-65.60963 -26.69096,-22.53272 -53.46194,-45.60766 -74.81811,-73.44338 -1.64911,-2.25736 -4.77726,-6.63573 -6.8074,-9.15468 -4.61415,-5.72515 -9.59417,-11.16816 -13.78673,-17.22719 -9.39795,-12.91088 -19.31374,-25.48572 -27.59121,-39.16902 -10.37983,-17.68177 -20.44519,-35.7265 -27.28394,-55.12264 -0.67653,-2.4491 -1.45361,-4.87263 -2.02959,-7.34731 -2.05383,-8.82421 -2.02229,-17.86193 -1.59281,-26.85482 0.553,-10.54267 1.32359,-21.25485 5.43505,-31.11431 5.62307,-11.64116 13.5725,-21.39421 23.61264,-29.58637 6.39698,-4.86539 8.47381,-6.61861 15.34133,-11.10028 2.94605,-1.92257 6.17139,-3.42675 8.9773,-5.54861 2.04295,-1.54492 -8.90606,5.0644 -6.6745,3.8072 18.47642,-10.4092 3.05771,-1.89585 22.28635,-12.41489 11.58879,-5.98982 23.20095,-12.05894 35.23648,-17.12415 8.22034,-3.45957 13.83349,-5.28328 22.27197,-7.96246 3.45034,-1.09547 6.92286,-2.11981 10.3843,-3.17972 13.17281,-3.62915 26.4787,-6.79507 40.14061,-7.86378 0,0 16.71611,-12.3586 16.71611,-12.3586 z" />
  <path
     style="fill:none;stroke:#000000"
     id="path122"
     d="m 659.76901,276.7108 c -2.00416,3.12835 -3.07587,7.00294 -5.73407,9.69838 -2.51484,2.55006 -4.3753,3.25469 -7.54144,5.013 3.97456,-2.53734 8.58831,-4.27877 11.92368,-7.61202 1.66508,-1.66402 -4.41889,1.6284 -6.65928,2.35097 -2.63649,0.85032 -5.29139,1.64723 -7.96668,2.3662 -13.84853,3.72173 -27.98466,6.5064 -41.99236,9.52643 -61.65951,12.83109 -123.36752,25.44705 -185.10011,37.92695 -20.92015,4.1258 -41.798,8.46607 -62.73839,12.48957 -9.91176,1.90446 -19.6508,3.81121 -29.40032,6.4091 0,0 -15.86807,12.20646 -15.86807,12.20646 v 0 c 7.50624,-2.21427 9.06812,-2.79399 17.28068,-4.629 4.34116,-0.96999 8.71793,-1.77332 13.07194,-2.6839 21.41055,-4.47773 42.77016,-9.19652 64.19767,-13.59406 61.1881,-12.68513 122.36368,-25.43703 183.7903,-36.92818 12.03182,-2.3962 19.50003,-3.82169 31.07763,-6.32857 7.575,-1.64021 10.65367,-2.29468 17.78068,-4.42245 2.2286,-0.66534 4.54727,-1.13038 6.63837,-2.14854 7.80457,-3.80004 15.31387,-8.17876 22.97081,-12.26814 1.42696,-0.93227 2.94553,-1.73749 4.28089,-2.79681 4.3123,-3.42089 6.357,-8.51975 8.99367,-13.17413 0,0 -19.0056,8.59874 -19.0056,8.59874 z" />
  <path
     style="fill:none;stroke:#000000"
     id="path124"
     d="m 1024.3189,233.95136 c -7.9855,8.69278 -9.914,10.60195 -18.745,21.53412 -15.67218,19.40093 -46.04562,59.04959 -58.73181,75.36438 -42.28349,54.37774 -42.01819,53.82473 -84.61813,107.72859 -32.0429,40.55995 -64.66928,80.65039 -97.41564,120.64209 0,0 14.20473,-6.06372 14.20473,-6.06372 v 0 c 31.37685,-39.67356 62.7029,-79.38715 93.94034,-119.17064 22.45312,-28.47571 63.03235,-80.07494 85.60064,-108.14462 16.8572,-20.96642 44.74997,-55.26615 63.94827,-77.49794 10.4599,-12.11256 11.5192,-12.91969 20.8364,-22.19875 0,0 -19.0198,7.80649 -19.0198,7.80649 z" />
  <path
     style="fill:none;stroke:#000000"
     id="path126"
     d="m 866.46534,192.74087 c -5.50705,16.1747 -14.57581,31.04298 -23.49372,45.5108 -11.81868,19.17384 -18.64054,28.92975 -31.43392,48.01863 -25.90732,37.22561 -53.40887,73.29791 -80.23707,109.85525 -14.3588,19.56595 -28.61534,39.20674 -42.93737,58.79963 -38.13869,52.67899 -76.19811,105.41509 -114.51973,157.96148 -20.16612,27.8216 -41.584,54.72644 -61.30943,82.86721 -1.5671,2.25482 -3.1342,4.50963 -4.7013,6.76445 0,0 18.28395,-7.97476 18.28395,-7.97476 v 0 c 1.4891,-2.21704 2.97821,-4.43407 4.46732,-6.65111 18.96574,-27.84178 39.49842,-54.57532 59.18861,-81.90091 37.77948,-52.42755 75.23538,-105.08845 113.20165,-157.38129 7.40246,-10.05829 14.80492,-20.11658 22.20738,-30.17487 7.0097,-9.58244 13.99246,-19.18467 21.02912,-28.74734 26.98251,-36.66867 54.57117,-72.89819 80.74858,-110.15375 12.71477,-18.6637 20.54934,-29.83759 32.50923,-48.58874 9.60361,-15.05687 19.26179,-30.4016 25.867,-47.06688 0,0 -18.8703,8.8622 -18.8703,8.8622 z" />
  <path
     style="fill:none;stroke:#000000"
     id="path951"
     d="m 320.78753,252.83338 c 0.89371,13.0131 -0.29189,26.0741 0.38149,39.08597 0.68478,13.2323 1.84202,26.44221 3.26029,39.61609 3.81634,35.44883 7.20488,61.47513 17.21624,95.99765 4.41448,15.22264 10.68306,29.84523 16.02459,44.76784 6.91499,12.24098 12.34731,25.44739 20.74498,36.72293 7.23774,9.7181 15.6968,18.88465 25.72997,25.6789 18.40523,12.46364 43.35591,17.69444 65.06975,11.53868 33.10839,-9.38606 62.83999,-38.94429 87.79339,-59.02289 33.88102,-34.03672 62.51013,-72.65252 88.60079,-112.83607 8.72593,-13.43926 23.82428,-36.93092 29.40388,-53.34445 1.89755,-5.58203 1.89579,-11.63809 2.84368,-17.45714 -2.04241,-3.68955 -2.65902,-8.66955 -6.12724,-11.06865 -10.05062,-6.95241 -24.80203,-0.57777 -33.17726,4.36074 -12.09682,7.13299 -23.91738,14.98741 -34.36458,24.3719 -14.84465,13.33462 -20.84151,29.28505 -29.51338,46.52685 -2.19617,8.11468 -5.27193,16.04116 -6.58851,24.34403 -1.97014,12.42458 -1.66733,27.74334 4.03196,39.45786 4.83209,9.93204 13.31247,16.32218 22.89113,21.01807 4.01195,1.96684 8.45157,2.90306 12.67736,4.35458 0,0 15.47441,-10.51934 15.47441,-10.51934 v 0 c -4.218,-1.27986 -8.62969,-2.04109 -12.654,-3.83956 -9.37947,-4.19172 -17.79487,-10.11102 -22.69785,-19.55565 -5.81553,-11.20245 -6.47962,-26.01473 -4.69284,-38.08487 1.20426,-8.13503 4.21797,-15.8973 6.32696,-23.84595 18.19443,-35.49766 5.21377,-14.32619 30.13274,-46.03389 1.85074,-2.35494 2.64926,-5.73175 5.17032,-7.34891 7.1112,-4.56154 21.26861,-11.13742 30.60271,-5.70532 3.29772,1.91916 4.21373,6.36216 6.3206,9.54323 -0.58079,5.46071 -0.20032,11.11157 -1.74236,16.38212 -4.77478,16.31971 -18.34892,38.48612 -26.71616,51.86597 -25.18289,40.26934 -53.6403,78.45726 -87.44471,111.97542 -22.83664,22.15889 -31.86353,36.06304 -64.40492,45.56222 -21.43308,6.25655 -46.19712,1.54528 -64.74206,-10.31034 -10.17833,-6.50692 -18.94052,-15.3247 -26.40758,-24.82109 -8.64419,-10.99342 -14.30501,-24.0349 -21.45751,-36.05234 -5.45724,-14.79851 -11.9822,-29.24595 -16.37172,-44.39552 -12.92835,-44.61962 -16.79926,-91.13626 -16.31044,-137.38318 0.13814,-13.06863 1.68077,-27.52422 2.91718,-40.72052 0,0 -18.2013,9.17463 -18.2013,9.17463 z" />
  <path
     style="fill:#ff0000;stroke:#000000"
     id="path957"
     d="m 730.5406,107.70357 c -25.37138,0.67551 -50.75213,0.5315 -76.12608,1.09161 -35.48729,1.26849 -70.87892,4.70783 -105.98938,9.95919 -19.54137,3.24826 -39.03812,7.03461 -58.12887,12.37613 -10.76406,3.01174 -17.64696,5.39056 -28.24726,8.85963 -24.51672,8.05209 -47.91326,18.95565 -70.80545,30.76684 -2.87383,1.59402 -5.77081,3.14701 -8.62149,4.78206 -8.22707,4.71877 -16.43176,9.47681 -24.61058,14.27872 -7.02658,4.1254 -14.34786,8.40476 -20.53976,13.75039 -2.0843,1.79944 -3.94481,3.84288 -5.91722,5.76431 -13.4639,13.39128 -21.52031,29.41398 -29.09976,46.54998 -7.63076,16.97937 -14.24402,34.35565 -19.58957,52.18359 -3.96635,13.65688 -4.69469,27.82493 -5.12857,41.94168 -0.5729,17.34956 0.33582,34.67738 1.53601,51.9792 1.97737,20.34844 6.47398,40.34364 10.44569,60.3686 5.52134,28.32533 11.53275,56.54866 17.13051,84.85835 6.07309,29.34552 13.07583,58.50268 20.50509,87.5329 4.20516,14.34831 8.07138,28.91836 13.88256,42.73372 2.56882,6.10705 4.95112,10.52403 7.94089,16.38594 5.66497,10.22316 11.59109,20.69112 19.88622,29.06791 1.57986,1.5954 3.31705,3.02692 4.97557,4.54038 7.6141,5.9189 15.39774,11.74767 23.78998,16.53938 4.07978,2.32943 9.3628,4.81918 13.57562,6.87317 14.31298,6.88152 29.84134,10.46632 44.91396,15.21579 22.35874,7.57857 44.24431,16.47097 66.15683,25.23554 3.61596,1.51167 7.21807,3.05693 10.8479,4.53501 5.30141,2.15874 21.04037,8.31896 25.86297,10.21742 12.77515,5.02906 20.95289,8.46136 34.18517,12.82196 6.7207,2.21476 13.54121,4.1143 20.31182,6.17145 31.82815,8.51589 64.63442,12.77043 97.47612,14.77161 23.36092,1.42348 41.65611,1.54066 65.1904,2.01671 43.55009,-0.62835 87.79643,-1.06316 130.48849,-10.8856 25.18356,-5.79414 29.129,-8.56362 52.6622,-18.32718 24.3484,-13.25254 34.15122,-17.81264 58.90989,-35.73731 6.7999,-4.92299 12.9405,-10.71646 19.0442,-16.48013 11.3431,-10.71116 22.3852,-23.2836 32.0574,-35.51744 4.733,-5.98654 9.1001,-12.25353 13.6501,-18.38029 22.5381,-32.61549 41.157,-67.88426 57.2905,-104.06462 3.1004,-6.95261 5.9331,-14.02148 8.8996,-21.03222 5.3877,-14.43294 9.5953,-24.71401 13.7028,-39.49183 4.9999,-17.98849 8.7526,-37.94467 10.3721,-56.55678 0.5812,-6.67899 0.7044,-13.38996 1.0565,-20.08494 -0.01,-6.62197 0.2695,-13.25009 -0.016,-19.86591 -0.2981,-6.91051 -1.0082,-13.79946 -1.7329,-20.67832 -1.5055,-14.28846 -3.1729,-25.88652 -6.5167,-39.89352 -3.8968,-16.32335 -6.5936,-22.79785 -12.0849,-38.56247 -2.7141,-6.42716 -5.1558,-12.97632 -8.1424,-19.28149 -6.4341,-13.58326 -14.9008,-28.12816 -22.753,-40.90597 -11.5112,-18.73211 -24.1704,-36.55292 -37.1274,-54.29404 -16.631,-23.43002 -36.0038,-44.61352 -57.074,-64.07429 -7.8784,-6.60366 -16.1477,-12.8037 -25.0937,-17.90373 -8.53499,-4.86572 -17.57545,-8.69306 -26.62103,-12.47158 -22.18531,-8.70561 -44.99849,-15.6412 -67.58236,-23.20915 -20.72992,-7.24661 -41.80005,-13.43791 -63.27951,-17.999994 -19.58565,-3.650021 -39.54433,-4.392028 -59.41199,-4.926358 -12.02031,0.15577 -24.1446,-1.074317 -36.12668,0.373639 -2.03021,0.245337 -4.03782,0.65097 -6.05673,0.976455 -9.70753,1.773093 -19.21917,4.331885 -28.58106,7.422638 -4.12784,1.30962 -8.14576,2.92954 -12.17589,4.50593 0,0 -15.99404,12.56675 -15.99404,12.56675 v 0 c 4.02749,-1.60917 8.02169,-3.31866 12.16006,-4.63126 9.3871,-3.1869 18.89104,-5.92142 28.62928,-7.83889 1.999,-0.37835 3.98339,-0.8444 5.99701,-1.13505 12.02578,-1.73581 24.28019,-0.5636 36.36895,-0.82997 19.85545,0.35667 39.79643,0.95759 59.38649,4.51127 21.53322,4.37596 42.67135,10.48545 63.4568,17.60446 22.47179,7.52413 45.16302,14.47019 67.16551,23.31663 8.93197,3.78884 17.93667,7.51347 26.42726,12.24606 8.91666,4.97006 17.22453,10.96412 25.04303,17.50942 21.3421,19.14093 41.439,39.64003 58.3835,62.86262 4.1243,5.50889 8.3379,10.95203 12.3728,16.52667 21.9546,30.33212 42.085,62.36098 55.2853,97.55865 5.4696,15.59943 8.2204,22.13236 12.0287,38.3087 6.1604,26.16724 8.5896,53.23028 8.0211,80.06646 -0.4453,6.69839 -0.6978,13.4124 -1.336,20.09516 -3.1297,32.76831 -11.3417,64.80004 -23.6318,95.31 -2.916,6.96346 -5.6889,13.98856 -8.748,20.89038 -16.0507,36.21397 -34.9461,71.30259 -57.5971,103.82613 -11.4679,15.40166 -15.6648,21.80426 -28.6649,36.13318 -16.5986,18.29523 -16.9585,17.14903 -35.7672,33.52257 -2.5074,2.18279 -4.59743,4.8985 -7.4009,6.68522 -7.5417,4.80653 -15.64928,8.66142 -23.47392,12.99213 -23.55311,9.99943 -27.56513,12.8381 -52.82011,18.88561 -42.66695,10.21694 -87.19133,11.16153 -130.81801,11.5221 -11.17846,-0.31578 -22.36218,-0.48135 -33.53539,-0.94735 -42.71093,-1.78135 -85.66719,-5.45395 -127.03912,-16.76368 -6.66098,-2.0955 -13.37702,-4.02342 -19.98296,-6.2865 -13.57657,-4.65111 -20.50491,-7.79301 -33.50638,-13.20586 -4.52269,-1.88291 -9.04842,-3.75849 -13.57264,-5.63774 -3.94366,-1.6187 -7.89497,-3.21888 -11.83098,-4.85609 -3.62444,-1.50762 -7.2334,-3.05221 -10.85009,-4.57831 -11.34208,-4.47261 -22.71266,-8.87001 -34.06451,-13.31738 -7.53478,-2.95194 -15.00176,-6.07654 -22.55705,-8.97557 -3.03836,-1.16584 -6.11658,-2.22501 -9.17487,-3.33751 -14.89727,-4.94324 -30.3369,-8.39155 -44.60335,-15.09186 -3.49657,-1.70241 -10.01416,-4.80856 -13.42944,-6.7349 -8.31036,-4.68735 -15.96504,-10.4654 -23.48557,-16.3013 -1.62064,-1.45704 -3.31833,-2.83269 -4.86192,-4.37111 -8.24589,-8.21829 -14.0852,-18.50837 -19.96055,-28.44175 -3.57949,-6.81299 -4.8644,-8.95825 -7.97153,-16.13599 -5.90595,-13.6433 -10.17918,-27.946 -14.46328,-42.15452 -7.58055,-28.93209 -14.63665,-58.00881 -20.71425,-87.29678 -5.56004,-28.37504 -11.26663,-56.72089 -16.56977,-85.14585 -3.68447,-20.0564 -7.80692,-40.0895 -9.92211,-60.38645 -1.21731,-17.3157 -1.75639,-34.64191 -1.0612,-51.99778 0.46993,-13.93954 1.37509,-27.93079 5.21758,-41.42052 5.2215,-17.6992 11.66945,-34.97468 19.32233,-51.7744 7.80252,-17.14421 16.03372,-32.7062 29.72594,-45.99387 2.01918,-1.85851 3.94205,-3.82742 6.05752,-5.57553 3.95313,-3.26666 8.84731,-6.35491 13.17595,-9.06348 2.38584,-1.49291 9.88479,-5.26882 7.20972,-4.39419 -3.10664,1.01573 -11.3858,6.42567 -8.53476,4.82741 2.90386,-1.62787 5.79548,-3.27749 8.69322,-4.91624 22.99383,-12.05548 46.48262,-23.24669 71.17078,-31.44248 10.92294,-3.6188 17.06894,-5.7851 28.15616,-8.93446 19.12078,-5.43132 38.64729,-9.30138 58.22011,-12.68479 35.10135,-5.50303 70.49858,-9.24254 106.03195,-10.28949 24.65953,-0.41201 49.33189,-0.25298 73.98665,0.4196 0,0 16.68305,-12.12095 16.68305,-12.12095 z" />
  <path
     style="fill:#ff0000;stroke:#000000"
     id="path959"
     d="m 584.73677,193.15334 c -16.44079,-2.50972 -32.97313,-4.54466 -49.60369,-5.21112 -4.277,-0.1714 -8.55934,-0.16097 -12.83901,-0.24145 -15.02013,0.39125 -29.77969,3.22738 -43.70564,8.89201 -2.84687,1.15802 -5.69813,2.33778 -8.39697,3.80815 -8.21818,4.47738 -16.21692,9.34631 -24.32539,14.01947 -11.88552,7.96163 -21.47118,18.63293 -28.52813,31.05643 -1.42817,2.51422 -2.6033,5.16398 -3.90494,7.74598 -4.65836,10.95059 -8.00089,22.43795 -9.86027,34.19609 -1.19897,7.5819 -1.46567,12.44988 -2.11569,20.13795 -1.99557,22.19172 -0.73998,44.40236 2.12781,66.44165 3.48516,19.72375 9.92732,38.793 17.73376,57.19231 3.82419,7.76769 7.18959,15.96908 12.30781,23.02598 2.80868,3.87256 4.81543,5.70976 8.14155,9.16405 7.42724,6.44656 15.88177,11.65138 25.18554,14.92172 6.32271,2.22248 8.9638,2.49354 15.5778,3.80254 15.53737,2.31532 30.87246,-0.56394 45.15463,-6.86851 2.92571,-1.2915 5.72661,-2.849 8.58992,-4.2735 14.38519,-7.31585 27.02163,-14.98068 38.05946,-26.4032 6.97582,-7.21894 12.69647,-15.29197 18.49973,-23.44575 7.74572,-11.65847 15.01063,-23.68816 20.26182,-36.70206 3.46878,-8.59661 3.83811,-10.69716 6.39681,-19.52534 4.42516,-17.75447 5.42309,-36.07489 5.89001,-54.29045 1.00879,-14.72569 -1.72877,-29.11013 -5.30781,-43.29931 -3.79221,-12.29998 -9.46961,-23.83144 -15.537,-35.13405 -3.67343,-7.55563 -9.14544,-13.17548 -15.62061,-18.33589 -6.1952,-4.06449 -13.37042,-5.35418 -20.59639,-6.10078 0,0 -16.6834,11.89729 -16.6834,11.89729 v 0 c 6.93604,0.5124 13.90278,1.44223 19.98324,5.09588 6.37315,4.87722 11.71817,10.2517 15.46547,17.46985 6.20408,11.03675 11.91313,22.37538 15.50901,34.57113 3.60344,13.96959 6.17552,28.18834 5.29214,42.69376 -0.4627,18.02056 -1.24149,36.15761 -5.8191,53.69492 -2.58631,8.75955 -2.9233,10.73869 -6.45145,19.25972 -5.3371,12.88994 -12.63614,24.8255 -20.43123,36.35294 -5.89117,8.11161 -11.73306,16.08479 -18.8504,23.19132 -2.13796,2.13471 -4.34299,4.20838 -6.65521,6.15299 -2.29267,1.92816 -9.89,4.25478 -7.14412,5.45241 3.06413,1.33643 5.90408,-3.13715 8.85612,-4.70572 -2.83519,1.47691 -5.60602,3.08458 -8.50557,4.43074 -13.93445,6.46924 -28.92403,9.65592 -44.25913,7.58994 -6.41691,-1.21131 -9.11499,-1.48459 -15.26405,-3.55386 -9.08589,-3.05755 -17.38331,-7.99106 -24.54546,-14.34038 -3.40607,-3.55447 -4.96887,-4.94222 -7.85445,-8.88749 -5.07451,-6.93807 -8.7505,-14.84465 -12.58257,-22.48922 -7.94615,-18.12302 -14.61441,-36.93195 -17.8671,-56.51326 -0.48605,-3.59543 -1.06362,-7.17968 -1.45814,-10.7863 -2.01012,-18.37624 -1.82739,-36.91334 -0.38581,-55.32201 0.80733,-8.36606 0.98014,-11.84211 2.39818,-20.05 2.00606,-11.61144 5.36127,-22.98417 10.1792,-33.74272 1.32695,-2.5227 2.53104,-5.11396 3.98086,-7.56812 7.19806,-12.18447 16.9224,-22.54734 28.84032,-30.20205 -3.02812,1.69167 -7.23119,2.14296 -9.08436,5.07503 -1.65664,2.62111 5.55322,-2.76773 8.40115,-3.99408 13.86886,-5.97204 28.58916,-9.19614 43.68466,-9.77278 4.27283,0.0484 8.54855,-0.0188 12.81851,0.14533 16.11224,0.61925 32.25329,2.58694 47.97336,6.17953 0,0 16.87422,-11.89771 16.87422,-11.89771 z" />
  <path
     style="fill:#ff0000;stroke:#000000"
     id="path961"
     d="m 917.81895,184.30496 c -7.38574,-7.23534 -16.10545,-10.84898 -26.46904,-11.66206 -4.04279,-0.31717 -8.10972,-0.10725 -12.16457,-0.16088 -20.30637,1.1661 -41.49468,3.08115 -60.99497,9.23682 -13.51896,4.26753 -16.14097,6.42675 -28.52108,13.09231 -9.41502,6.03657 -19.11639,11.64825 -28.24505,18.1097 -4.10999,2.90912 -7.73045,6.46521 -11.37818,9.93639 -6.40488,6.09486 -12.70607,13.19068 -17.93843,20.34077 -6.04,8.25372 -7.15529,11.1046 -11.90197,20.02709 -10.85403,21.40263 -13.02962,43.23227 -14.49722,66.75502 -0.81707,23.75015 1.21189,47.71747 6.91301,70.82553 1.1178,4.53073 2.54544,8.97936 3.81816,13.46904 4.48893,13.56624 9.40228,27.37821 18.43358,38.68936 1.71443,2.14722 3.4975,4.27226 5.56925,6.07717 2.17179,1.89206 4.72324,3.29805 7.08486,4.94708 2.82603,1.25245 5.54924,2.76899 8.4781,3.75736 15.1388,5.10868 35.58303,5.63965 51.24277,3.49525 5.75466,-0.78803 11.40055,-2.23073 17.10082,-3.34609 16.29123,-4.31838 31.95225,-10.69052 46.47715,-19.25519 11.84759,-6.98599 26.24091,-14.24613 36.20843,-24.74036 2.6305,-2.7695 4.71255,-6.01252 7.06882,-9.01878 7.36506,-11.13688 12.23243,-23.53537 14.02207,-36.7788 0.88904,-6.57895 1.26264,-15.66008 1.63063,-22.25601 1.43786,-19.90098 -0.35605,-39.69706 -3.24199,-59.36756 -2.52653,-17.20595 -7.2611,-33.96059 -12.92949,-50.36635 -4.7696,-13.22141 -11.11419,-25.89773 -19.49728,-37.21494 -1.5205,-2.05269 -3.18286,-3.99641 -4.7743,-5.99461 -9.14483,-10.375 -19.32555,-17.71938 -31.87055,-23.37787 -6.14465,-2.68398 -12.57614,-3.36932 -19.18771,-3.50812 0,0 -16.35717,11.87517 -16.35717,11.87517 v 0 c 6.45007,-0.0917 12.7336,0.36842 18.81495,2.7763 1.66757,0.68646 3.37063,1.29233 5.00269,2.05937 10.21183,4.7994 19.07163,12.04226 26.67448,20.30238 4.27221,5.19845 5.72509,6.67314 9.44205,12.43196 6.065,9.39674 10.80646,19.60754 14.66367,30.08366 5.59113,16.31484 10.23239,32.96449 12.7654,50.05584 3.0873,19.45521 4.72964,39.0901 3.45138,58.80177 -0.5474,8.64732 -0.65283,13.61278 -2.01565,22.15836 -2.05575,12.89067 -6.70386,25.03282 -14.12288,35.80692 -2.36831,2.88847 -4.49077,5.99739 -7.10492,8.66542 -2.73644,2.79284 -6.61352,4.4749 -8.88695,7.65603 -0.92685,1.2969 5.85682,-2.42476 4.52374,-1.55075 -14.12973,9.26394 -30.31326,15.09473 -46.38394,19.88119 -5.55053,1.09758 -11.04645,2.52109 -16.6516,3.29273 -15.32099,2.10916 -35.03629,1.56663 -49.86471,-3.34787 -2.81547,-0.93311 -5.45191,-2.33816 -8.17787,-3.50724 -2.27171,-1.53883 -4.71694,-2.84835 -6.81513,-4.61647 -2.04405,-1.72249 -3.82915,-3.74379 -5.54151,-5.79632 -9.11998,-10.93171 -14.37572,-24.35758 -18.89829,-37.67706 -1.29393,-4.42815 -2.76148,-8.80922 -3.88178,-13.28445 -5.75835,-23.00279 -7.41277,-46.94422 -6.28165,-70.57276 0.66913,-9.38652 0.86856,-14.5755 2.19194,-23.84721 2.09601,-14.68486 6.06008,-28.96836 12.78777,-42.2411 1.79687,-3.3094 3.44822,-6.70206 5.3906,-9.9282 4.31692,-7.17008 8.85345,-13.30605 14.43646,-19.57469 3.08348,-3.46216 6.30197,-6.81236 9.68477,-9.9827 3.64247,-3.41369 8.10697,-5.96967 11.3689,-9.74864 0.66407,-0.76933 -2.03131,0.0718 -3.04697,0.10762 12.07199,-6.733 15.03816,-9.14236 28.27966,-13.48897 14.59773,-4.79179 30.9688,-7.15479 46.24056,-8.48662 4.61439,-0.40242 9.25154,-0.47655 13.87731,-0.71483 3.84896,0.0828 7.71023,-0.0703 11.54687,0.24836 9.42168,0.78245 18.34141,3.99617 24.6868,11.17605 0,0 17.7652,-10.72452 17.7652,-10.72452 z" />
  <path
     style="fill:#ff0000;stroke:#000000"
     id="path963"
     d="m 625.57833,424.93405 c 0.75443,16.57414 0.76646,33.17524 0.53369,49.76146 -0.67253,16.91077 -3.07186,33.68395 -4.80088,50.50593 -1.00611,8.63989 -1.16798,17.32665 -1.12944,26.0129 0.0695,10.17522 0.0721,20.34997 -0.0509,30.52468 0.005,7.1138 0.0755,14.22595 0.0168,21.33978 0,0 18.12827,-9.23764 18.12827,-9.23764 v 0 c -0.0644,-7.11489 0.002,-14.22836 -0.015,-21.34325 -0.15478,-10.1498 -0.19503,-20.30088 -0.0526,-30.45127 0.1683,-8.59585 0.3511,-17.19559 1.01513,-25.77088 1.28213,-16.75807 3.36664,-33.45566 3.99151,-50.2607 0.29403,-16.83637 0.0924,-33.685 0.86969,-50.51042 0,0 -18.50626,9.42941 -18.50626,9.42941 z" />
  <path
     style="fill:#d40000;stroke:#000000"
     id="path965"
     d="m 454.21677,580.67167 c 1.72325,12.21444 4.19582,24.34707 8.09861,36.06814 1.15662,3.47362 2.54096,6.86722 3.81145,10.30083 5.35058,13.05943 12.15729,25.47739 20.1984,37.06977 2.60084,3.74948 9.14765,12.46796 11.9067,16.16914 8.99279,11.23391 17.53913,22.91031 27.98257,32.88613 8.14406,7.77939 12.57665,10.89831 21.51912,17.92261 12.8152,9.25759 26.6547,16.97492 41.4149,22.6799 16.96718,6.55802 34.59557,10.53999 52.29662,14.46911 20.32262,4.19092 40.78407,7.7677 61.44086,9.83301 14.91091,1.49083 17.38713,1.43768 32.37459,2.21184 15.65649,0.41671 31.50498,0.46155 46.80168,-3.48483 11.68278,-3.01404 24.232,-8.21823 34.9893,-13.59161 5.48118,-2.73791 10.71156,-5.95151 16.06734,-8.92726 9.84529,-6.20452 19.955,-12.00805 29.53586,-18.61358 4.45941,-3.07454 8.49543,-6.73471 12.50779,-10.3734 7.58419,-6.87787 13.857,-13.72416 19.93029,-21.94871 6.96884,-9.43731 8.20087,-12.62248 13.61328,-22.78832 6.35057,-13.19734 11.38158,-27.01911 14.74153,-41.28089 1.71664,-7.2865 2.10506,-10.54367 3.26597,-17.82449 1.87788,-14.07431 2.34079,-28.45368 -0.3528,-42.44354 -0.90453,-1.27493 -1.5747,-2.75403 -2.7136,-3.82478 -6.32163,-5.94329 -18.11419,-5.5888 -26.13378,-5.19367 -1.48208,0.14002 -2.96415,0.28004 -4.44623,0.42005 0,0 -16.26894,12.09433 -16.26894,12.09433 v 0 c 1.49633,-0.18728 2.99265,-0.37457 4.48898,-0.56186 7.17891,-0.59049 18.94205,-1.36719 24.88429,3.59681 0.98019,0.81882 1.56914,2.01563 2.35371,3.02345 3.07512,13.64485 2.53178,27.69612 0.64485,41.48747 -1.15887,7.539 -1.3921,9.98569 -3.16175,17.55389 -3.28514,14.0494 -8.17369,27.67392 -14.46011,40.65898 -1.9964,3.71313 -3.80826,7.53156 -5.98922,11.13939 -4.82629,7.98388 -10.27634,15.29202 -16.59668,22.16414 -21.9552,23.87199 1.13875,-2.86723 -23.07894,20.68605 -0.32831,0.3193 0.72602,0.55845 1.08903,0.83767 -5.3459,3.03373 -10.56332,6.30594 -16.03768,9.10119 -10.66796,5.44713 -22.69116,10.54474 -34.31132,13.62517 -15.20885,4.03176 -30.98979,4.17233 -46.59228,3.85049 -15.11632,-0.74769 -17.20038,-0.65628 -32.22605,-2.17231 -20.6933,-2.08787 -41.19125,-5.67815 -61.62605,-9.48361 -13.59555,-2.9105 -21.53491,-4.31187 -34.90817,-8.39447 -20.71483,-6.32384 -40.3798,-15.51075 -57.85774,-28.38496 -10.11225,-8.07718 -11.89084,-9.05993 -20.95709,-17.96361 -10.24333,-10.05968 -18.73096,-21.6169 -27.61274,-32.84217 -12.38944,-16.46871 -24.53096,-33.25155 -31.98127,-52.66017 -1.22283,-3.40539 -2.58272,-6.76463 -3.66849,-10.21616 -3.68841,-11.72496 -6.01811,-24.03087 -6.44403,-36.31807 0,0 -18.53276,9.44291 -18.53276,9.44291 z" />
  <path
     style="fill:#d40000;stroke:#000000;stroke-width:1.40449"
     d="m 781.6837,458.48919 c -24.45405,-5.30256 -36.0523,-17.95373 -47.56961,-51.88807 -15.3962,-45.36304 -14.64804,-109.12805 1.71247,-145.95032 9.65991,-21.74138 36.87992,-52.56994 54.03515,-61.19859 8.41958,-4.23483 25.40667,-9.84547 29.8087,-9.84547 1.46358,0 2.66105,-0.54511 2.66105,-1.21136 0,-2.45987 15.87866,1.36261 25.12605,6.04863 33.46724,16.95912 56.44618,63.77235 63.46484,129.29195 2.05866,19.21779 0.86278,56.90984 -2.20343,69.44818 -5.08354,20.78759 -20.8698,42.23712 -37.23016,50.58638 -28.17247,14.37739 -64.17024,20.27727 -89.80506,14.71867 z"
     id="path967" />
  <path
     style="fill:#d35f5f;stroke:#000000;stroke-width:1.40449"
     d="m 755.61798,831.39844 c -61.53888,-2.49312 -103.51165,-8.89109 -142.8608,-21.77654 -8.2785,-2.71092 -28.50322,-10.51948 -44.94382,-17.35239 -48.80339,-20.28323 -87.28076,-35.05895 -114.16167,-43.83929 -40.93824,-13.372 -62.60415,-27.59237 -78.56323,-51.56477 -16.65269,-25.01428 -24.54601,-45.90466 -38.03295,-100.65758 -9.86869,-40.0639 -14.86756,-63.70335 -27.32392,-129.21349 -11.21009,-58.95583 -12.62471,-69.10659 -13.60329,-97.61236 -1.70933,-49.79178 4.36215,-78.26102 26.81775,-125.74887 8.85762,-18.7316 15.05893,-28.16331 25.72554,-39.12657 10.54187,-10.83504 21.99814,-18.16784 49.39054,-31.61332 48.04693,-23.58368 95.43937,-37.20713 158.81989,-45.65439 43.0408,-5.73642 61.72908,-6.92298 111.07922,-7.05266 l 47.17472,-0.12398 8.2798,-6.25132 c 7.85088,-5.92747 8.0991,-6.29596 4.79157,-7.11322 -12.38734,-3.06077 56.87378,-4.13099 84.16943,-1.30058 18.9542,1.96545 40.99448,7.21046 73.81325,17.56563 65.69873,20.72964 97.70349,34.10908 118.02349,49.33917 6.1798,4.63182 19.0633,16.26645 28.6301,25.85473 47.7689,47.87639 92.4898,117.31642 110.273,171.22538 22.8008,69.11985 19.4424,144.27141 -9.7733,218.69791 -9.5604,24.35501 -35.1511,75.50701 -48.9441,97.83208 -21.1983,34.31114 -44.7707,63.96567 -64.9451,81.70246 -6.0649,5.3321 -14.2745,12.6834 -18.2436,16.3362 -4.90494,4.51413 -13.67758,9.79764 -27.38765,16.49481 -43.21893,21.11182 -77.74067,28.31062 -148.6824,31.00459 -19.69803,0.74802 -37.71067,1.27287 -40.02809,1.16631 -2.31742,-0.1066 -15.58989,-0.65462 -29.49438,-1.21794 z m 16.15168,-51.96077 c 29.7116,-4.68656 80.07247,-31.38115 105.85809,-56.1118 14.68226,-14.08157 22.20224,-24.19514 30.81569,-41.44385 13.88757,-27.81026 19.68489,-51.66055 19.80075,-81.46067 0.052,-13.35917 -0.49169,-20.67136 -1.69573,-22.8085 -3.09618,-5.49564 -9.77214,-7.91675 -22.07953,-8.00743 -10.89974,-0.0803 -11.49737,0.09 -18.60955,5.30353 -4.04147,2.96255 -7.34814,5.9421 -7.34814,6.62122 0,0.67911 4.60811,1.2107 10.24028,1.18129 12.24101,-0.0639 17.20316,1.89655 19.18418,7.57935 2.16068,6.19808 1.7977,32.48739 -0.64168,46.47582 -6.14446,35.23493 -25.05448,73.18631 -44.92076,90.15345 -3.55716,3.03805 -9.75562,8.5908 -13.77434,12.33944 -8.12301,7.57708 -31.79323,19.77774 -47.86671,24.67259 -27.95434,8.5129 -81.26302,5.93495 -146.23783,-7.07191 -59.8915,-11.98927 -95.0714,-32.08144 -128.02916,-73.12079 -17.46696,-21.75007 -25.91074,-33.58277 -33.62765,-47.12419 -10.07021,-17.67092 -18.82072,-45.27765 -18.82072,-59.37696 0,-2.99379 -0.47401,-5.71516 -1.05337,-6.04747 -0.57935,-0.33232 -5.00351,1.5832 -9.83146,4.25671 -10.21182,5.65487 -10.20248,5.61638 -5.9883,24.67576 5.75825,26.04262 17.05688,48.83778 38.15502,76.97828 17.80407,23.74692 27.79097,34.98644 39.78914,44.77974 33.3742,27.24112 60.40966,38.33437 121.51324,49.85955 15.73506,2.96791 44.56533,6.93393 59.69101,8.21138 13.29398,1.12275 47.08436,0.80935 55.47753,-0.51454 z M 638.83746,554.22706 c 0.50491,-22.4864 1.58223,-46.25655 2.39403,-52.82257 1.82432,-14.75563 3.8149,-85.67816 2.40465,-85.67584 -0.56472,9.3e-4 -4.98888,1.95728 -9.83146,4.34745 L 625,424.42184 l -0.0881,33.22448 c -0.0586,22.12062 -0.88003,39.65615 -2.45787,52.4691 -1.68045,13.64673 -2.3698,30.08673 -2.3698,56.5178 v 37.27314 l 8.91757,-4.39746 8.91758,-4.39745 z M 512.69649,481.00971 c 11.25941,-2.87356 32.24595,-13.09213 45.00969,-21.91568 13.2633,-9.16892 24.53715,-21.23389 36.15805,-38.69539 23.01334,-34.57969 29.82015,-56.63971 31.34289,-101.57842 0.99497,-29.36331 -0.78734,-42.86014 -8.11823,-61.47609 -10.83444,-27.51285 -22.37025,-43.22306 -34.71624,-47.27878 -11.43025,-3.7549 -14.22467,-3.34851 -23.35502,3.39648 l -8.32031,6.14657 7.86217,1.56991 c 15.12009,3.01916 23.55704,11.34301 34.19586,33.73742 13.69218,28.82163 16.69596,48.67728 13.25135,87.59428 -2.55626,28.88048 -8.325,47.58835 -21.60334,70.05903 -24.74284,41.87189 -45.81673,57.93658 -76.00204,57.93658 -28.37681,0 -51.26426,-14.16337 -64.78969,-40.09364 -22.73025,-43.57723 -30.42167,-94.62758 -22.21761,-147.46508 4.05189,-26.09583 12.24883,-45.05692 25.93526,-59.99325 9.4355,-10.29717 17.51357,-15.0787 33.0501,-19.5628 9.68961,-2.79659 14.30749,-3.22657 34.36781,-3.2001 15.98316,0.0211 27.84919,0.83257 38.24018,2.61513 l 15.06603,2.58456 6.94681,-4.45775 c 3.82075,-2.45177 7.64386,-5.29765 8.49582,-6.32419 1.77686,-2.14099 -0.27724,-2.65449 -19.59154,-4.89759 -48.9215,-5.68158 -71.14335,-2.2745 -104.66598,16.04752 -38.16829,20.86113 -54.05093,48.89326 -58.4311,103.12817 -3.92069,48.54558 4.48167,92.26548 25.72199,133.83899 5.16354,10.10656 8.96278,15.46907 14.6275,20.64631 8.53549,7.80095 22.13379,15.06439 33.24219,17.75611 10.2284,2.47846 28.34174,2.42251 38.2974,-0.11826 z m 305.22206,-11.14192 c 22.38116,-4.75669 46.08495,-15.23703 71.86485,-31.77415 19.33312,-12.40169 31.30264,-28.85051 37.22487,-51.15544 3.07587,-11.58459 4.35964,-54.49962 2.20577,-73.73595 -6.4713,-57.79541 -25.25908,-101.9906 -52.14543,-122.66359 l -9.09108,-6.99016 7.72472,1.01487 c 8.72925,1.14684 18.01802,4.84948 20.88826,8.32635 1.06018,1.28425 2.55755,2.335 3.32751,2.335 2.28482,0 17.91906,-9.919 17.91906,-11.36858 0,-0.73355 -2.89,-3.16652 -6.42223,-5.40659 -9.79606,-6.21248 -21.52512,-7.67834 -45.08623,-5.63475 -10.68018,0.92635 -19.73452,2.0814 -20.12075,2.56676 -0.38624,0.48537 -2.59832,0.86988 -4.91574,0.85447 -8.04908,-0.0535 -29.56372,6.45157 -41.66144,12.59663 -55.51252,28.19768 -84.27551,63.82383 -91.60958,113.46859 -5.87364,39.75904 -3.16737,76.74732 8.29909,113.42909 13.93025,44.56356 32.99529,58.60744 77.21913,56.88185 7.72471,-0.30142 18.69538,-1.53639 24.37922,-2.7444 z"
     id="path971" />
</svg>
